<svg width="40" height="74" viewBox="0 0 40 74" fill="none" xmlns="http://www.w3.org/2000/svg">
<path fill-rule="evenodd" clip-rule="evenodd" d="M39.5088 72.9662L39.5075 72.9635C39.5082 72.9643 39.5091 72.9654 39.5091 72.9654C39.5096 72.966 39.5095 72.9663 39.5088 72.9662Z" fill="#11F960"/>
<path d="M20.7726 23.3685L17.4595 28.1099C17.7433 30.0414 18.1317 32.1541 18.6454 34.3753C18.8819 32.0942 19.5178 31.4847 21.2048 29.8681L21.205 29.8679C21.4881 29.5966 21.8007 29.297 22.1459 28.9564C24.0687 27.0598 24.6638 25.1182 24.721 24.3845V16.4257C24.721 15.3419 25.1788 13.9421 25.4077 13.3776C24.4921 14.8452 22.455 18.0174 21.6309 18.9657C20.8069 19.914 20.7153 22.296 20.7726 23.3685Z" fill="#11F960"/>
<path d="M16.1374 21.167C16 20.6251 16.5379 20.9412 16.8241 21.167V17.2723C19.2962 12.9373 19.6853 10.7247 19.5708 10.1602C17.2086 4.06408 17.179 0.846683 17.4595 0C16.5038 0.338673 14.6953 2.06591 15.1073 6.26546C15.5193 10.465 14.9356 11.7407 14.5923 11.8536C12.8069 16.4595 14.8784 19.9816 16.1374 21.167Z" fill="#11F960"/>
<path d="M16.1374 21.167C16.2448 21.5909 16.4993 24.6677 16.6873 27.1223C16.7395 27.8054 16.7867 28.4403 16.8241 28.9564C16.7718 30.6049 17.4187 33.7892 18.5181 37.5558C18.548 37.6584 18.5783 37.7614 18.6089 37.8648C18.7143 38.2211 18.8237 38.5822 18.9368 38.9474C20.1081 42.7313 21.6788 46.9562 23.4224 50.7469C25.2382 54.6943 27.2416 58.1709 29.1771 60.1883C29.5256 60.5516 29.872 60.8675 30.2146 61.1304C31.1189 61.8242 31.9796 62.6041 32.7897 63.4319C35.4817 66.1831 37.6152 69.4641 38.9357 71.8756C39.1475 72.2625 39.3385 72.6271 39.5075 72.9635C39.5082 72.9643 39.5091 72.9654 39.5091 72.9654C39.5096 72.966 39.5095 72.9663 39.5088 72.9662C39.7018 73.3505 39.866 73.698 40 74V71.7987C39.7276 70.9257 38.2062 68.8787 36.4064 66.665C36.1532 66.3536 35.8944 66.0388 35.6329 65.7235C34.004 63.7601 32.2663 61.7774 31.073 60.4532C29.9387 59.1666 28.8886 57.8111 27.9172 56.4061C27.6811 56.0646 27.4497 55.7202 27.2228 55.3731C25.3171 52.4577 23.7337 49.3551 22.4261 46.2289L22.4164 46.2057C22.0662 45.3673 21.7357 44.5274 21.4242 43.6889C20.2416 40.5054 19.3317 37.3434 18.6454 34.3753C18.1317 32.1541 17.7433 30.0414 17.4595 28.1099C17.0553 25.3585 16.8633 22.9745 16.8241 21.167C16.5379 20.9412 16 20.6251 16.1374 21.167Z" fill="#11F960"/>
<path d="M17.1674 47.9225C14.7067 46.1162 8.9957 42.7406 5.8369 43.6889C7.32474 44.4791 10.8498 46.9401 13.0472 50.4623C14.0772 51.1397 16.7897 52.4605 19.3991 52.325C20.6581 52.1557 23.8936 52.1896 24.8549 53.6797C24.3679 52.7444 23.889 51.7612 23.4224 50.7469C22.777 50.2784 20.7405 47.2817 17.1674 47.9225Z" fill="#11F960"/>
<path d="M24.721 35.8994C22.1116 37.7959 21.4359 41.8826 21.4242 43.6889C21.7357 44.5274 22.0662 45.3673 22.4164 46.2057C21.8136 44.7012 25.526 41.0839 27.4678 39.4554C29.3613 37.7434 29.2243 30.595 29.1898 28.7927L29.1898 28.7923C29.1868 28.634 29.1845 28.517 29.1845 28.4486C29.1845 27.9402 29.5068 27.2093 29.7886 26.6853C29.5377 26.9701 29.0888 27.4203 28.3262 28.1099C26.6781 29.6 25.2361 33.9238 24.721 35.8994Z" fill="#11F960"/>
<path d="M27.2961 50.4623V55.2038L27.2228 55.3731C27.4497 55.7202 27.6811 56.0646 27.9172 56.4061C27.9454 55.4008 32.331 50.3311 34.6781 47.7529C34.1287 42.4696 34.907 38.4394 35.3648 37.0847C31.5193 40.0651 30.329 44.6484 30.2146 46.5676C29.3905 47.6513 27.9256 49.6156 27.2961 50.4623Z" fill="#11F960"/>
<path d="M36.3948 56.7278C34.1974 59.4372 34.907 63.727 35.5365 65.5333L35.6329 65.7235C35.8944 66.0388 36.1532 66.3536 36.4064 66.665C37.371 62.2302 39.202 59.9994 40 59.4372V46.0596C36.7382 49.9543 37.2532 54.1877 37.0815 55.3731C36.9442 56.3214 36.5665 56.6713 36.3948 56.7278Z" fill="#11F960"/>
<path d="M38.7982 71.7987C37.5393 70.5005 34.0257 68.2426 30.0429 69.5973C27.8684 68.5813 22.3519 66.9896 17.6824 68.7507C19.2847 69.0894 23.2789 70.4779 26.4377 73.3228C27.525 73.7179 30.3176 74.2711 32.7897 73.3228C34.392 72.7583 37.8369 71.7987 38.7982 72.4761C39.3247 72.847 39.4976 72.964 39.5088 72.9662L39.5075 72.9635C39.3385 72.6271 39.1475 72.2625 38.9357 71.8756L38.7982 71.7987Z" fill="#11F960"/>
<path d="M22.3176 59.4372C21.1731 58.5906 17.4077 57.1004 11.5021 57.9133C13.8483 58.5906 18.7468 60.5548 19.5708 62.9932C19.9714 63.2755 21.2532 63.7045 22.4892 63.8399C24.0343 64.0093 28.6695 61.8079 32.618 63.3319L32.7897 63.4319C31.9796 62.6041 31.1189 61.8242 30.2146 61.1304C29.872 60.8675 29.5256 60.5516 29.1771 60.1883C28.7405 59.8424 27.5928 58.7145 22.3176 59.4372Z" fill="#11F960"/>
<path d="M16.6523 27.0939C16.4234 25.5698 14.7296 22.1492 9.7854 20.6591C8.64091 18.7964 5.18454 14.9355 0.515021 14.3936C2.23176 16.0305 5.66523 19.914 5.66523 22.3524C6.35192 23.4249 8.58368 25.6714 12.0172 26.0778C13.1044 26.2472 15.7374 27.4664 16.8361 29.6339C16.8218 29.386 16.8176 29.1596 16.8241 28.9564C16.7867 28.4403 16.7395 27.8054 16.6873 27.1223L16.6523 27.0939Z" fill="#11F960"/>
<path d="M11.1588 33.8674C9.38483 32.0046 4.66952 28.5163 0 29.4645C1.20172 29.7468 4.56652 31.7337 8.41201 37.4234C9.38483 37.875 11.8455 38.6765 13.9056 38.2701C15.2217 38.2701 18.0601 37.7282 18.8841 38.9474H18.9368C18.8237 38.5822 18.7143 38.2211 18.6089 37.8648C18.5783 37.7614 18.548 37.6584 18.5181 37.5558C17.4665 35.8564 14.4311 32.926 11.1588 33.8674Z" fill="#11F960"/>
</svg>
