<svg width="195" height="101" viewBox="0 0 195 101" fill="none" xmlns="http://www.w3.org/2000/svg">
<path d="M25.0331 0V7.24067H17.3275V29.1273H8.22829V7.24067H0.604664V0H25.0331ZM36.6001 10.2028C37.5292 8.85885 38.6632 7.78921 40.0021 6.99383C41.341 6.17103 42.7346 5.75963 44.1828 5.75963V15.5099H41.6006C39.8791 15.5099 38.6085 15.8115 37.7888 16.4149C36.9963 17.0183 36.6001 18.088 36.6001 19.6239V29.1273H27.501V5.92419H36.6001V10.2028ZM69.0128 17.32C69.0128 17.9508 68.9718 18.5542 68.8899 19.1302H54.2574C54.394 21.1323 55.2274 22.1334 56.7576 22.1334C57.7413 22.1334 58.4518 21.6809 58.889 20.7758H68.521C68.1931 22.4214 67.4963 23.9025 66.4306 25.2189C65.3923 26.508 64.067 27.5365 62.4549 28.3045C60.87 29.045 59.1212 29.4152 57.2085 29.4152C54.9132 29.4152 52.8638 28.9353 51.0604 27.9753C49.2843 27.0154 47.8907 25.6441 46.8797 23.8613C45.896 22.0511 45.4042 19.9393 45.4042 17.5257C45.4042 15.1122 45.896 13.014 46.8797 11.2313C47.8907 9.4211 49.2843 8.03605 51.0604 7.07611C52.8638 6.11618 54.9132 5.63621 57.2085 5.63621C59.5038 5.63621 61.5395 6.11618 63.3156 7.07611C65.119 8.00862 66.5126 9.35254 67.4963 11.1079C68.5073 12.8632 69.0128 14.9339 69.0128 17.32ZM59.7907 15.1396C59.7907 14.3716 59.5448 13.7957 59.0529 13.4117C58.5611 13.0003 57.9463 12.7946 57.2085 12.7946C55.5963 12.7946 54.6536 13.5763 54.3804 15.1396H59.7907ZM70.661 17.5257C70.661 15.0847 71.0709 12.9729 71.8906 11.1901C72.7377 9.37996 73.8853 8.00862 75.3335 7.07611C76.7818 6.11618 78.4076 5.63621 80.211 5.63621C81.7139 5.63621 83.0118 5.95161 84.1048 6.58243C85.1978 7.18582 86.0312 8.02234 86.605 9.09198V5.92419H95.6632V29.1273H86.605V25.9595C86.0312 27.0291 85.1978 27.8793 84.1048 28.5102C83.0118 29.1135 81.7139 29.4152 80.211 29.4152C78.4076 29.4152 76.7818 28.949 75.3335 28.0165C73.8853 27.0565 72.7377 25.6852 71.8906 23.9025C71.0709 22.0923 70.661 19.9667 70.661 17.5257ZM86.605 17.5257C86.605 16.2915 86.2908 15.3316 85.6623 14.6459C85.0339 13.9602 84.2278 13.6174 83.2441 13.6174C82.2604 13.6174 81.4543 13.9602 80.8258 14.6459C80.1974 15.3316 79.8831 16.2915 79.8831 17.5257C79.8831 18.7599 80.1974 19.7199 80.8258 20.4055C81.4543 21.0912 82.2604 21.434 83.2441 21.434C84.2278 21.434 85.0339 21.0912 85.6623 20.4055C86.2908 19.7199 86.605 18.7599 86.605 17.5257ZM110.037 29.4152C107.851 29.4152 105.911 29.0587 104.217 28.3456C102.55 27.6325 101.225 26.6451 100.241 25.3835C99.2573 24.1219 98.6971 22.6957 98.5605 21.1049H107.291C107.4 21.7906 107.687 22.298 108.152 22.6271C108.643 22.9562 109.258 23.1208 109.996 23.1208C110.46 23.1208 110.829 23.0248 111.103 22.8328C111.376 22.6134 111.512 22.3528 111.512 22.0511C111.512 21.53 111.226 21.1598 110.652 20.9404C110.078 20.7209 109.108 20.4741 107.742 20.1998C106.075 19.8707 104.695 19.5142 103.602 19.1302C102.536 18.7462 101.594 18.088 100.774 17.1555C99.9814 16.2229 99.5852 14.9339 99.5852 13.2883C99.5852 11.8621 99.9541 10.573 100.692 9.4211C101.457 8.24175 102.577 7.32295 104.053 6.66471C105.528 5.97904 107.318 5.63621 109.422 5.63621C112.537 5.63621 114.969 6.40416 116.718 7.94006C118.494 9.47596 119.56 11.4781 119.915 13.9465H111.84C111.704 13.3157 111.417 12.8357 110.98 12.5066C110.542 12.1501 109.955 11.9718 109.217 11.9718C108.753 11.9718 108.397 12.0678 108.152 12.2598C107.906 12.4243 107.783 12.6849 107.783 13.0414C107.783 13.5077 108.07 13.8642 108.643 14.1111C109.217 14.3305 110.133 14.5636 111.39 14.8105C113.056 15.1396 114.464 15.5099 115.611 15.9213C116.759 16.3327 117.756 17.0458 118.603 18.0605C119.45 19.0479 119.874 20.4192 119.874 22.1746C119.874 23.5459 119.478 24.7801 118.685 25.8772C117.893 26.9743 116.745 27.8382 115.242 28.469C113.767 29.0998 112.032 29.4152 110.037 29.4152ZM147.954 5.92419V29.1273H138.855V25.5892C138.145 26.6863 137.188 27.5776 135.986 28.2633C134.811 28.949 133.404 29.2918 131.764 29.2918C129.114 29.2918 127.037 28.4004 125.534 26.6177C124.059 24.835 123.321 22.4214 123.321 19.377V5.92419H132.379V18.2251C132.379 19.3222 132.666 20.1998 133.24 20.8581C133.841 21.4889 134.633 21.8043 135.617 21.8043C136.628 21.8043 137.421 21.4889 137.994 20.8581C138.568 20.1998 138.855 19.3222 138.855 18.2251V5.92419H147.954ZM161.163 10.2028C162.092 8.85885 163.226 7.78921 164.565 6.99383C165.904 6.17103 167.297 5.75963 168.746 5.75963V15.5099H166.163C164.442 15.5099 163.171 15.8115 162.352 16.4149C161.559 17.0183 161.163 18.088 161.163 19.6239V29.1273H152.064V5.92419H161.163V10.2028ZM182.181 29.4152C179.859 29.4152 177.768 28.9353 175.91 27.9753C174.052 27.0154 172.59 25.6441 171.524 23.8613C170.486 22.0511 169.967 19.9393 169.967 17.5257C169.967 15.1122 170.486 13.014 171.524 11.2313C172.59 9.4211 174.052 8.03605 175.91 7.07611C177.768 6.11618 179.859 5.63621 182.181 5.63621C184.504 5.63621 186.594 6.11618 188.452 7.07611C190.31 8.03605 191.759 9.4211 192.797 11.2313C193.863 13.014 194.395 15.1122 194.395 17.5257C194.395 19.9393 193.863 22.0511 192.797 23.8613C191.759 25.6441 190.31 27.0154 188.452 27.9753C186.594 28.9353 184.504 29.4152 182.181 29.4152ZM182.181 21.5163C183.028 21.5163 183.739 21.1872 184.312 20.529C184.886 19.8433 185.173 18.8422 185.173 17.5257C185.173 16.2092 184.886 15.2219 184.312 14.5636C183.739 13.878 183.028 13.5351 182.181 13.5351C181.334 13.5351 180.624 13.878 180.05 14.5636C179.476 15.2219 179.189 16.2092 179.189 17.5257C179.189 18.8422 179.462 19.8433 180.009 20.529C180.583 21.1872 181.307 21.5163 182.181 21.5163Z" fill="white"/>
<path d="M0.252708 86.3641C7.77782 80.7243 13.7305 75.6199 18.1108 71.0515C22.4911 66.4268 24.6812 62.1122 24.6812 58.1076C24.6812 56.754 24.3723 55.7105 23.7546 54.9774C23.193 54.2444 22.4349 53.8776 21.4802 53.8776C20.3571 53.8776 19.4586 54.4698 18.7847 55.6542C18.1669 56.7824 17.9423 58.5306 18.1108 60.8994H0C0.168472 55.6542 1.29162 51.3396 3.36945 47.9556C5.50344 44.5716 8.25515 42.0898 11.6246 40.5108C14.994 38.9316 18.7004 38.1419 22.7438 38.1419C29.9319 38.1419 35.1826 39.8902 38.4959 43.3872C41.8654 46.8274 43.5501 51.255 43.5501 56.6694C43.5501 62.366 41.7251 67.7237 38.0748 72.7435C34.4807 77.7066 29.96 81.9087 24.5127 85.3489H43.8028V100.492H0.252708V86.3641ZM48.3014 69.5287C48.3014 59.7713 50.3513 52.101 54.4507 46.5174C58.6065 40.9338 64.9802 38.1419 73.5723 38.1419C82.1084 38.1419 88.4543 40.9621 92.6097 46.602C96.7655 52.1856 98.8431 59.828 98.8431 69.5287C98.8431 79.286 96.7655 86.9847 92.6097 92.6246C88.4543 98.2082 82.1084 101 73.5723 101C64.9802 101 58.6065 98.2082 54.4507 92.6246C50.3513 86.9847 48.3014 79.286 48.3014 69.5287ZM80.3954 69.5287C80.3954 65.0165 79.9464 61.6325 79.0476 59.3766C78.1493 57.0641 76.3243 55.908 73.5723 55.908C70.7647 55.908 68.9115 57.0641 68.0127 59.3766C67.1143 61.6325 66.6649 65.0165 66.6649 69.5287C66.6649 74.0971 67.1143 77.5374 68.0127 79.8499C68.9115 82.1058 70.7647 83.2339 73.5723 83.2339C76.3243 83.2339 78.1493 82.1058 79.0476 79.8499C79.9464 77.5374 80.3954 74.0971 80.3954 69.5287ZM103.738 86.3641C111.263 80.7243 117.216 75.6199 121.596 71.0515C125.976 66.4268 128.167 62.1122 128.167 58.1076C128.167 56.754 127.858 55.7105 127.24 54.9774C126.679 54.2444 125.92 53.8776 124.966 53.8776C123.842 53.8776 122.944 54.4698 122.27 55.6542C121.652 56.7824 121.428 58.5306 121.596 60.8994H103.485C103.654 55.6542 104.777 51.3396 106.855 47.9556C108.989 44.5716 111.741 42.0898 115.11 40.5108C118.479 38.9316 122.186 38.1419 126.229 38.1419C133.417 38.1419 138.668 39.8902 141.981 43.3872C145.351 46.8274 147.036 51.255 147.036 56.6694C147.036 62.366 145.211 67.7237 141.56 72.7435C137.966 77.7066 133.445 81.9087 127.998 85.3489H147.288V100.492H103.738V86.3641ZM151.45 86.3641C158.975 80.7243 164.928 75.6199 169.308 71.0515C173.688 66.4268 175.878 62.1122 175.878 58.1076C175.878 56.754 175.57 55.7105 174.952 54.9774C174.39 54.2444 173.632 53.8776 172.677 53.8776C171.555 53.8776 170.656 54.4698 169.982 55.6542C169.364 56.7824 169.139 58.5306 169.308 60.8994H151.197C151.366 55.6542 152.489 51.3396 154.567 47.9556C156.701 44.5716 159.452 42.0898 162.822 40.5108C166.191 38.9316 169.898 38.1419 173.941 38.1419C181.129 38.1419 186.38 39.8902 189.693 43.3872C193.063 46.8274 194.747 51.255 194.747 56.6694C194.747 62.366 192.922 67.7237 189.272 72.7435C185.678 77.7066 181.157 81.9087 175.71 85.3489H195V100.492H151.45V86.3641Z" fill="white"/>
<path d="M115.775 60.8994C116.249 60.2674 116.726 59.6264 117.207 58.9796C121.59 53.0901 126.335 46.7155 131.969 42.1563C133.447 40.9603 134.825 40.1471 136.118 39.6618C138.473 40.5309 140.416 41.7726 141.946 43.3872C145.315 46.8274 147 51.255 147 56.6694C147 62.366 145.175 67.7237 141.525 72.7435C137.931 77.7066 133.41 81.9087 127.963 85.3489H147.253V100.492H103.703V86.3641C111.228 80.7243 117.181 75.6199 121.561 71.0515C125.941 66.4268 128.131 62.1122 128.131 58.1076C128.131 56.754 127.823 55.7105 127.205 54.9774C126.643 54.2444 125.885 53.8776 124.93 53.8776C123.807 53.8776 122.909 54.4698 122.235 55.6542C121.617 56.7824 121.392 58.5306 121.561 60.8994H115.775Z" fill="#04EA87"/>
<path fill-rule="evenodd" clip-rule="evenodd" d="M82.7947 39.5176C80.5608 44.4686 78.2673 52.5474 87.3767 65.5877C91.5246 71.5254 95.1905 74.1523 98.6131 74.5087C98.0086 81.9427 95.9957 87.9813 92.5743 92.6246C88.419 98.2082 82.073 101 73.5369 101C64.9449 101 58.5711 98.2082 54.4153 92.6246C50.972 87.8872 48.9746 81.6973 48.4236 74.0548C51.6324 74.7387 55.084 74.3276 58.7634 72.2306C64.9022 68.732 66.1312 59.8647 67.3082 51.3729C67.9781 46.539 68.6312 41.8269 70.1635 38.296C71.2472 38.1933 72.3717 38.1419 73.5369 38.1419C76.979 38.1419 80.0649 38.6005 82.7947 39.5176ZM79.0123 59.3766C79.9111 61.6325 80.3601 65.0165 80.3601 69.5287C80.3601 74.0971 79.9111 77.5374 79.0123 79.8499C78.1139 82.1058 76.2889 83.2339 73.5369 83.2339C70.7294 83.2339 68.8762 82.1058 67.9774 79.8499C67.079 77.5374 66.6296 74.0971 66.6296 69.5287C66.6296 65.0165 67.079 61.6325 67.9774 59.3766C68.8762 57.0641 70.7294 55.908 73.5369 55.908C76.2889 55.908 78.1139 57.0641 79.0123 59.3766Z" fill="#04EA87"/>
<path d="M18.9878 38.377C22.4421 44.0735 25.7409 50.8357 28.1063 56.2875C28.5004 56.7926 28.908 57.3214 29.3291 57.8676C32.2572 61.6658 35.8343 66.306 40.008 69.6956C39.4246 70.7251 38.7684 71.741 38.0394 72.7435C34.4453 77.7066 29.9246 81.9087 24.4774 85.3489H43.7675V100.492H0.422062V86.2106C7.8505 80.6316 13.7349 75.5784 18.0754 71.0515C22.4557 66.4268 24.6458 62.1122 24.6458 58.1076C24.6458 56.754 24.337 55.7105 23.7193 54.9774C23.1577 54.2444 22.3996 53.8776 21.4449 53.8776C20.3217 53.8776 19.4232 54.4698 18.7493 55.6542C18.1316 56.7824 17.907 58.5306 18.0754 60.8994H0.0495535C0.0299566 60.6409 0.0132641 60.3624 0 60.0634C0.256356 55.194 1.36772 51.1581 3.3341 47.9556C5.46809 44.5716 8.21979 42.0898 11.5892 40.5108C13.8973 39.429 16.3635 38.7177 18.9878 38.377Z" fill="#04EA87"/>
<path d="M152.249 53.2911C152.613 54.0294 152.974 54.7716 153.334 55.5106C154.234 57.3617 155.125 59.1937 156.032 60.8994H151.162C151.252 58.0978 151.614 55.5617 152.249 53.2911Z" fill="#04EA87"/>
<path d="M171.031 69.0701C176.508 67.5787 178.273 64.7179 178.419 63.1722C180.153 59.2267 185.145 50.611 191.239 47.7122C191.724 47.4818 192.164 47.3602 192.562 47.3355C193.995 50.027 194.712 53.1383 194.712 56.6694C194.712 62.366 192.887 67.7237 189.237 72.7435C185.643 77.7066 181.122 81.9087 175.675 85.3489H194.965V100.492H151.415V86.3641C158.94 80.7243 164.892 75.6199 169.273 71.0515C169.904 70.3846 170.49 69.7241 171.031 69.0701Z" fill="#04EA87"/>
</svg>
