<svg width="155" height="94" viewBox="0 0 155 94" fill="none" xmlns="http://www.w3.org/2000/svg">
<path d="M30.5785 75.8103C35.5763 82.9693 46.6188 90.8375 51.5153 93.8767H80.8944C84.0011 83.8809 82.6391 67.6495 81.5698 60.7833C94.6722 54.975 106.728 38.6646 111.118 31.2354C111.793 21.645 105.996 24.0875 103.013 26.5075C101.392 29.3439 96.0342 36.0192 93.5578 39.0023C92.3421 36.4358 92.0382 28.0273 92.0382 24.1439C91.9031 15.6341 86.016 18.4594 83.0894 20.9358C80.9282 28.3649 83.9899 41.1409 85.7909 46.6003C84.17 48.3563 79.7125 50.1461 77.6863 50.8214C77.5512 49.876 73.3526 43.7863 71.2702 40.8596C67.2179 32.6199 68.6812 13.4503 69.9194 4.89549C67.0828 -3.07401 62.3214 0.449233 60.2953 3.20704C58.4042 7.79963 58.3817 23.0182 58.6068 30.0534C52.2582 26.0012 47.069 18.5719 45.268 15.3639C38.6493 11.7168 37.3323 17.5588 37.5011 20.9358C42.2288 32.1471 55.1173 39.1148 60.9706 41.1972C62.1863 45.5196 65.5295 50.2023 67.0491 52.0033C73.8029 58.2168 72.7898 81.1572 71.439 91.8508C64.0098 90.23 54.2731 83.8588 50.3334 80.8758C56.817 73.1765 56.6369 56.6184 55.7364 49.3018C51.1438 43.3584 47.6319 47.1631 46.4499 49.8083C47.3955 68.0436 44.0298 73.6155 42.2288 74.122C28.9913 63.5861 26.1322 37.989 26.3573 26.5075C22.0349 20.1589 18.1402 23.8623 16.7332 26.5075C15.9227 38.9345 20.5603 56.1117 22.9804 63.1469C22.4401 64.2276 11.3864 58.8695 5.92708 56.0554C-0.421506 54.9748 -0.432763 60.6705 0.355182 63.6534C10.0807 69.867 24.5563 74.347 30.5785 75.8103Z" fill="#0A0049"/>
<path d="M109.018 86.8506C106.159 90.7513 101.441 93.1605 99.4395 93.8775H114.594C119.626 91.0093 123.648 85.2254 125.03 82.692C139.212 85.9044 150.001 78.8679 153.623 74.9481C157.626 67.9498 151.955 67.4431 148.619 68.0646C141.3 75.2922 133.942 75.6651 131.178 74.9481C133.923 71.9653 138.898 63.0932 141.042 59.03C141.385 52.6054 136.515 53.4849 134.037 54.7278C126.946 68.1506 118.597 77.7206 115.309 80.8277C109.133 75.4356 108.065 61.1811 108.303 54.7278C106.13 49.7946 102.251 52.6723 100.583 54.7278C99.4395 57.4812 100.107 65.9135 100.583 69.7854C99.6683 69.7854 96.199 67.1084 94.5787 65.7699C88.8601 64.049 88.7648 68.7814 89.432 71.3628C97.8955 79.5082 102.775 79.6325 104.157 78.6765C104.5 80.8563 107.541 85.0342 109.018 86.8506Z" fill="#0A0049"/>
</svg>
