<svg width="235" height="387" viewBox="0 0 235 387" fill="none" xmlns="http://www.w3.org/2000/svg">
<path d="M45.0559 310.273C27.2032 297.81 7.582 270.273 0.00302277 258.062L0.00302365 184.798C24.93 177.051 65.4067 180.448 82.5291 183.114C97.0134 150.44 137.687 120.377 156.214 109.43C180.13 107.745 174.039 122.202 168.004 129.64C160.931 133.682 144.284 147.044 136.845 153.219C143.245 156.251 164.214 157.009 173.898 157.009C195.119 157.346 188.074 172.026 181.898 179.325C163.372 184.714 131.512 177.079 117.898 172.588C113.519 176.63 109.056 187.746 107.371 192.798C109.729 193.135 124.915 203.606 132.214 208.799C152.761 218.904 200.565 215.255 221.898 212.167C241.772 219.241 232.986 231.114 226.109 236.167C214.656 240.883 176.705 240.939 159.161 240.378C169.267 256.209 187.793 269.15 195.793 273.641C204.888 290.146 190.319 293.431 181.898 293.01C153.94 281.22 136.565 249.079 131.372 234.483C120.593 231.451 108.915 223.114 104.424 219.325C88.9294 202.483 31.722 205.009 5.05521 208.378C9.09699 226.904 24.985 251.185 32.4238 261.009C51.6239 244.841 92.9154 245.29 111.161 247.536C125.982 258.988 116.494 267.746 109.898 270.694C64.424 268.336 50.5292 276.729 49.266 281.22C75.5398 314.231 139.372 321.361 168.004 320.799C183.835 331.578 174.6 341.291 168.004 344.799C137.014 346.82 94.1788 335.255 76.6349 329.22C73.9401 330.568 87.3017 358.133 94.3193 371.747C97.0141 387.578 82.8105 387.607 75.3718 385.642C59.877 361.389 48.705 325.29 45.0559 310.273Z" fill="#FFC800"/>
<path d="M17.523 114.666C7.79582 121.796 1.78784 133.561 -0.000236205 138.553L-0.000235755 100.762C7.15239 88.2125 21.5759 78.1825 27.8935 74.7362C19.8826 39.3698 37.4298 12.4647 47.2048 3.43295C64.6565 -6.5495 65.9201 7.5923 64.3704 15.911C46.3465 34.1646 45.4167 52.5133 47.2048 59.406C54.6429 52.5609 76.7677 40.1541 86.9003 34.8064C102.921 33.9507 100.728 46.096 97.6288 52.2757C64.1559 69.9589 40.2909 90.7794 32.5425 98.9793C45.9889 114.381 81.536 117.043 97.6288 116.449C109.931 121.868 102.755 131.541 97.6288 135.7C90.7626 138.553 69.7347 136.889 60.079 135.7C60.079 137.982 66.7548 146.634 70.0927 150.674C74.3841 164.935 62.5827 165.172 56.1456 163.509C35.833 142.403 35.523 130.234 37.9072 126.788C32.4714 125.932 22.0528 118.35 17.523 114.666Z" fill="#FFC800"/>
</svg>
