<svg width="176" height="138" viewBox="0 0 176 138" fill="none" xmlns="http://www.w3.org/2000/svg">
<path d="M182.625 111.274C175.289 121.782 159.081 133.331 151.894 137.792H108.771C104.211 123.12 106.211 99.2957 107.78 89.2175C88.5485 80.6921 70.8534 56.7517 64.4098 45.8472C63.4185 31.7704 71.9273 35.3555 76.3056 38.9076C78.6848 43.0709 86.5493 52.8688 90.1841 57.2474C91.9685 53.4803 92.4146 41.1384 92.4146 35.4383C92.6129 22.9476 101.254 27.0946 105.55 30.7294C108.722 41.6338 104.228 60.3865 101.584 68.3997C103.964 70.9772 110.506 73.6042 113.48 74.5955C113.678 73.2077 119.841 64.2693 122.898 59.9735C128.846 47.8794 126.698 19.7423 124.88 7.18558C129.044 -4.51201 136.033 0.659381 139.007 4.70728C141.782 11.4483 141.815 33.786 141.485 44.1123C150.803 38.1644 158.42 27.2598 161.064 22.551C170.779 17.1979 172.712 25.7728 172.464 30.7294C165.525 47.1853 146.607 57.4125 138.015 60.469C136.231 66.8135 131.324 73.6867 129.094 76.3302C119.18 85.4503 120.667 119.122 122.65 134.818C133.554 132.439 147.846 123.088 153.629 118.709C144.112 107.408 144.376 83.1042 145.698 72.3649C152.439 63.6413 157.594 69.2257 159.329 73.1084C157.941 99.8741 162.881 108.052 165.525 108.796C184.954 93.3313 189.151 55.7601 188.821 38.9076C195.165 29.5892 200.882 35.0249 202.947 38.9076C204.137 57.1479 197.329 82.3605 193.777 92.6868C194.57 94.2729 210.795 86.4084 218.808 82.2778C228.126 80.6917 228.143 89.0519 226.986 93.4302C212.711 102.55 191.464 109.126 182.625 111.274Z" fill="#FDFF98"/>
<path d="M67.492 127.476C71.6888 133.201 78.6137 136.738 81.5515 137.79H59.3081C51.9216 133.58 46.018 125.091 43.9895 121.372C23.1731 126.087 7.33688 115.759 2.02086 110.005C-3.85475 99.7335 4.46902 98.9898 9.36537 99.9019C20.1093 110.511 30.9093 111.058 34.9662 110.005C30.9373 105.627 23.6347 92.6049 20.4871 86.641C19.9834 77.211 27.1321 78.5019 30.7694 80.3262C41.1776 100.028 53.4325 114.075 58.2588 118.636C67.3241 110.721 68.8909 89.7983 68.5412 80.3262C71.7308 73.0853 77.4245 77.3092 79.8727 80.3262C81.5514 84.3676 80.5722 96.7445 79.8727 102.428C81.2157 102.428 86.3079 98.4985 88.6861 96.5338C97.0799 94.0079 97.2198 100.954 96.2405 104.743C83.8178 116.699 76.6551 116.881 74.6266 115.478C74.123 118.677 69.6604 124.81 67.492 127.476Z" fill="#FDFF98"/>
</svg>
