<svg width="140" height="85" viewBox="0 0 140 85" fill="none" xmlns="http://www.w3.org/2000/svg">
<path d="M112.381 68.4739C107.867 74.9401 97.8927 82.0469 93.47 84.792H66.9341C64.1279 75.7635 65.3582 61.1028 66.324 54.9011C54.4896 49.6549 43.6007 34.9229 39.6356 28.2126C39.0255 19.5503 44.2616 21.7564 46.9558 23.9423C48.4199 26.5042 53.2594 32.5335 55.4961 35.2279C56.5942 32.9098 56.8687 25.315 56.8687 21.8074C56.9907 14.1211 62.308 16.673 64.9515 18.9097C66.9035 25.6199 64.1381 37.1596 62.5114 42.0906C63.9754 43.6767 68.0016 45.2933 69.8317 45.9033C69.9537 45.0493 73.746 39.5489 75.6269 36.9055C79.287 29.4632 77.9653 12.1487 76.8469 4.42174C79.409 -2.77652 83.7097 0.405759 85.5397 2.89668C87.2478 7.04483 87.2681 20.7907 87.0648 27.1451C92.799 23.4849 97.486 16.7747 99.1127 13.877C105.091 10.5829 106.28 15.8596 106.128 18.9097C101.858 29.0361 90.2166 35.3295 84.9297 37.2104C83.8317 41.1145 80.8121 45.344 79.4395 46.9707C73.3393 52.583 74.2543 73.3034 75.4744 82.9621C82.1846 81.4981 90.9791 75.7435 94.5376 73.0492C88.6813 66.0949 88.844 51.1392 89.6574 44.5307C93.8055 39.1625 96.9776 42.5989 98.0452 44.9882C97.1912 61.4588 100.231 66.4915 101.858 66.949C113.814 57.4326 116.397 34.3127 116.193 23.9423C120.097 18.2081 123.615 21.553 124.886 23.9423C125.618 35.1667 121.429 50.6816 119.243 57.036C119.731 58.012 129.715 53.1725 134.647 50.6307C140.381 49.6547 140.391 54.7992 139.679 57.4935C130.895 63.1057 117.82 67.1522 112.381 68.4739Z" fill="#FDFF98"/>
<path d="M41.5319 78.4452C44.1145 81.9684 48.3758 84.1444 50.1836 84.7921H36.4959C31.9505 82.2014 28.3177 76.9773 27.0694 74.689C14.2597 77.5906 4.51475 71.235 1.24346 67.6945C-2.37217 61.3735 2.74997 60.9158 5.763 61.4771C12.3744 68.0053 19.0203 68.3421 21.5168 67.6945C19.0375 65.0004 14.5438 56.9868 12.6069 53.3168C12.297 47.514 16.696 48.3084 18.9342 49.431C25.3391 61.5548 32.8802 70.1987 35.8502 73.0051C41.4286 68.1349 42.3928 55.2597 42.1776 49.431C44.1404 44.9752 47.6441 47.5744 49.1506 49.431C50.1836 51.9179 49.581 59.5342 49.1506 63.0314C49.977 63.0314 53.1106 60.6135 54.574 59.4045C59.7392 57.8502 59.8253 62.1246 59.2227 64.4561C51.5782 71.8133 47.1706 71.9256 45.9224 71.0621C45.6124 73.0309 42.8663 76.8045 41.5319 78.4452Z" fill="#FDFF98"/>
</svg>
