<svg width="37" height="37" viewBox="0 0 37 37" fill="none" xmlns="http://www.w3.org/2000/svg">
<path d="M33.0357 0H3.96429C1.77484 0 0 1.77484 0 3.96429V33.0357C0 35.2252 1.77484 37 3.96429 37H33.0357C35.2252 37 37 35.2252 37 33.0357V3.96429C37 1.77484 35.2252 0 33.0357 0ZM14.7106 19.0041C7.2207 13.5683 7.29701 13.5546 5.28571 11.9892V9.91071C5.28571 8.81599 6.17314 7.92857 7.26786 7.92857H29.7321C30.8269 7.92857 31.7143 8.81599 31.7143 9.91071V11.9892C29.7015 13.5559 29.7789 13.5687 22.2894 19.0042C21.4223 19.6364 19.6968 21.1614 18.5 21.1428C17.3022 21.1608 15.5791 19.6374 14.7106 19.0041ZM31.7143 15.343V27.0893C31.7143 28.184 30.8269 29.0714 29.7321 29.0714H7.26786C6.17314 29.0714 5.28571 28.184 5.28571 27.0893V15.343C6.4385 16.2345 8.03833 17.4272 13.1567 21.1419C14.3263 21.996 16.293 23.7968 18.4998 23.7856C20.7203 23.7967 22.7149 21.9653 23.8449 21.1407C28.962 17.4271 30.5615 16.2344 31.7143 15.343Z" fill="white"/>
</svg>
