<svg width="386" height="507" viewBox="0 0 386 507" fill="none" xmlns="http://www.w3.org/2000/svg">
<path fill-rule="evenodd" clip-rule="evenodd" d="M333.797 51.6387C381.13 48.9376 416.077 -3.83138 463.313 0.221967C519.337 5.02941 594.111 21.5969 610.506 75.3832C627.683 131.733 557.779 176.792 533.497 230.464C517.254 266.367 506.742 302.067 491.509 338.41C468.466 393.382 474.476 472.433 421.019 498.802C369.948 523.995 311.31 477.567 260.163 452.528C216.126 430.97 184.892 394.434 146.231 364.279C96.4293 325.435 4.3509 312.742 0.151483 249.723C-4.17895 184.737 85.4256 156.553 129.173 108.303C157.994 76.517 172.095 25.9315 213.446 14.4808C254.745 3.04415 291.013 54.0802 333.797 51.6387Z" fill="#171C46"/>
</svg>
