<svg width="413" height="217" viewBox="0 0 413 217" fill="none" xmlns="http://www.w3.org/2000/svg">
<path fill-rule="evenodd" clip-rule="evenodd" d="M177.89 -267.483C229.992 -277.531 286.088 -332.015 329.949 -302.153C374.273 -271.977 346.721 -199.531 355.418 -146.619C361.525 -109.464 366.726 -74.4734 373.46 -37.4268C383.97 20.3946 430.118 78.5616 406.098 132.198C382.771 184.284 316.791 206.91 260.325 215.199C207.041 223.022 160.392 182.632 106.932 176.115C38.3873 167.76 -64.16 233.05 -95.9828 171.767C-132.02 102.368 -36.7266 32.1697 -4.90903 -39.2628C8.91477 -70.2982 28.2345 -96.8674 38.1474 -129.364C50.3038 -169.215 29.7342 -220.684 59.3668 -249.972C88.3581 -278.626 137.866 -259.764 177.89 -267.483Z" fill="#171C46"/>
</svg>
