<svg width="37" height="37" viewBox="0 0 37 37" fill="none" xmlns="http://www.w3.org/2000/svg">
<path d="M34.3571 0H2.6346C1.18103 0 0 1.19754 0 2.66763V34.3324C0 35.8025 1.18103 37 2.6346 37H34.3571C35.8107 37 37 35.8025 37 34.3324V2.66763C37 1.19754 35.8107 0 34.3571 0ZM11.1826 31.7143H5.69866V14.0567H11.1908V31.7143H11.1826ZM8.44062 11.6451C6.68147 11.6451 5.26094 10.2163 5.26094 8.4654C5.26094 6.71451 6.68147 5.28571 8.44062 5.28571C10.1915 5.28571 11.6203 6.71451 11.6203 8.4654C11.6203 10.2246 10.1998 11.6451 8.44062 11.6451ZM31.7391 31.7143H26.2551V23.125C26.2551 21.0768 26.2138 18.4422 23.4058 18.4422C20.5482 18.4422 20.1105 20.6721 20.1105 22.9763V31.7143H14.6266V14.0567H19.8875V16.4683H19.9618C20.6969 15.0808 22.4891 13.619 25.1567 13.619C30.7067 13.619 31.7391 17.2777 31.7391 22.0348V31.7143Z" fill="white"/>
</svg>
