<svg width="179" height="89" viewBox="0 0 179 89" fill="none" xmlns="http://www.w3.org/2000/svg">
<path d="M22.4615 0V6.94698H15.3763V27.9458H7.00978V6.94698H0V0H22.4615ZM33.0972 9.78892C33.9514 8.49952 34.9941 7.47326 36.2252 6.71015C37.4563 5.92072 38.7377 5.526 40.0693 5.526V14.8807H37.695C36.1121 14.8807 34.9438 15.1702 34.1901 15.7491C33.4615 16.328 33.0972 17.3543 33.0972 18.8279V27.9458H24.7306V5.68389H33.0972V9.78892ZM62.9 16.6175C62.9 17.2227 62.8623 17.8016 62.7869 18.3542H49.3327C49.4583 20.2752 50.2246 21.2356 51.6316 21.2356C52.5361 21.2356 53.1893 20.8015 53.5913 19.9331H62.4478C62.1463 21.5119 61.5056 22.9329 60.5257 24.196C59.571 25.4328 58.3524 26.4196 56.8701 27.1564C55.4129 27.8669 53.8049 28.2221 52.0462 28.2221C49.9357 28.2221 48.0513 27.7616 46.3931 26.8406C44.76 25.9196 43.4786 24.6039 42.549 22.8934C41.6445 21.1567 41.1923 19.1305 41.1923 16.8148C41.1923 14.4992 41.6445 12.4861 42.549 10.7757C43.4786 9.03896 44.76 7.71009 46.3931 6.78909C48.0513 5.86809 49.9357 5.40759 52.0462 5.40759C54.1566 5.40759 56.0284 5.86809 57.6615 6.78909C59.3197 7.68378 60.6011 8.97318 61.5056 10.6573C62.4352 12.3414 62.9 14.3281 62.9 16.6175ZM54.4204 14.5255C54.4204 13.7887 54.1943 13.2361 53.7421 12.8677C53.2898 12.473 52.7245 12.2756 52.0462 12.2756C50.5638 12.2756 49.697 13.0256 49.4457 14.5255H54.4204ZM64.4155 16.8148C64.4155 14.4729 64.7924 12.4467 65.5461 10.7362C66.325 8.99949 67.3802 7.68378 68.7118 6.78909C70.0434 5.86809 71.5383 5.40759 73.1966 5.40759C74.5784 5.40759 75.7718 5.7102 76.7768 6.31543C77.7818 6.89435 78.5481 7.69693 79.0757 8.72319V5.68389H87.4046V27.9458H79.0757V24.9065C78.5481 25.9327 77.7818 26.7485 76.7768 27.3537C75.7718 27.9326 74.5784 28.2221 73.1966 28.2221C71.5383 28.2221 70.0434 27.7748 68.7118 26.8801C67.3802 25.9591 66.325 24.6433 65.5461 22.9329C64.7924 21.1962 64.4155 19.1568 64.4155 16.8148ZM79.0757 16.8148C79.0757 15.6307 78.7868 14.7097 78.2089 14.0518C77.6311 13.394 76.8899 13.0651 75.9854 13.0651C75.0809 13.0651 74.3397 13.394 73.7619 14.0518C73.184 14.7097 72.8951 15.6307 72.8951 16.8148C72.8951 17.999 73.184 18.92 73.7619 19.5778C74.3397 20.2357 75.0809 20.5646 75.9854 20.5646C76.8899 20.5646 77.6311 20.2357 78.2089 19.5778C78.7868 18.92 79.0757 17.999 79.0757 16.8148ZM100.621 28.2221C98.6109 28.2221 96.8271 27.88 95.2693 27.1958C93.7367 26.5117 92.5182 25.5643 91.6137 24.3539C90.7092 23.1434 90.1942 21.7751 90.0685 20.2489H98.0959C98.1964 20.9067 98.4602 21.3935 98.8873 21.7093C99.3395 22.0251 99.9049 22.183 100.583 22.183C101.01 22.183 101.35 22.0909 101.601 21.9067C101.852 21.6961 101.978 21.4462 101.978 21.1567C101.978 20.6567 101.714 20.3015 101.186 20.091C100.659 19.8805 99.7667 19.6436 98.5104 19.3805C96.9778 19.0647 95.709 18.7226 94.704 18.3542C93.7242 17.9858 92.8574 17.3543 92.1036 16.4596C91.375 15.5649 91.0107 14.3281 91.0107 12.7493C91.0107 11.3809 91.3499 10.1442 92.0283 9.03896C92.7318 7.90745 93.7619 7.02592 95.1186 6.39438C96.4753 5.73652 98.121 5.40759 100.056 5.40759C102.92 5.40759 105.156 6.14439 106.764 7.61799C108.397 9.09159 109.377 11.0125 109.703 13.3808H102.279C102.154 12.7756 101.89 12.3151 101.488 11.9993C101.086 11.6572 100.546 11.4862 99.8672 11.4862C99.44 11.4862 99.1134 11.5783 98.8873 11.7625C98.6612 11.9204 98.5481 12.1704 98.5481 12.5125C98.5481 12.9598 98.8119 13.3019 99.3396 13.5387C99.8672 13.7492 100.709 13.9729 101.865 14.2097C103.397 14.5255 104.691 14.8807 105.746 15.2755C106.802 15.6702 107.719 16.3543 108.497 17.328C109.276 18.2753 109.666 19.591 109.666 21.2751C109.666 22.5908 109.301 23.775 108.573 24.8275C107.844 25.8801 106.789 26.709 105.407 27.3143C104.05 27.9195 102.455 28.2221 100.621 28.2221ZM135.485 5.68389V27.9458H127.119V24.5512C126.465 25.6038 125.586 26.459 124.481 27.1169C123.4 27.7747 122.106 28.1037 120.599 28.1037C118.162 28.1037 116.252 27.2485 114.87 25.538C113.514 23.8276 112.835 21.5119 112.835 18.5911V5.68389H121.164V17.4859C121.164 18.5384 121.428 19.3805 121.956 20.012C122.508 20.6173 123.237 20.9199 124.141 20.9199C125.071 20.9199 125.8 20.6173 126.327 20.012C126.855 19.3805 127.119 18.5384 127.119 17.4859V5.68389H135.485ZM147.63 9.78892C148.485 8.49952 149.527 7.47326 150.758 6.71015C151.989 5.92072 153.271 5.526 154.602 5.526V14.8807H152.228C150.645 14.8807 149.477 15.1702 148.723 15.7491C147.995 16.328 147.63 17.3543 147.63 18.8279V27.9458H139.264V5.68389H147.63V9.78892ZM166.956 28.2221C164.821 28.2221 162.899 27.7616 161.19 26.8406C159.482 25.9196 158.137 24.6039 157.158 22.8934C156.203 21.1567 155.725 19.1305 155.725 16.8148C155.725 14.4992 156.203 12.4861 157.158 10.7757C158.137 9.03896 159.482 7.71009 161.19 6.78909C162.899 5.86809 164.821 5.40759 166.956 5.40759C169.092 5.40759 171.014 5.86809 172.722 6.78909C174.431 7.71009 175.762 9.03896 176.717 10.7757C177.697 12.4861 178.187 14.4992 178.187 16.8148C178.187 19.1305 177.697 21.1567 176.717 22.8934C175.762 24.6039 174.431 25.9196 172.722 26.8406C171.014 27.7616 169.092 28.2221 166.956 28.2221ZM166.956 20.6436C167.735 20.6436 168.388 20.3278 168.916 19.6963C169.443 19.0384 169.707 18.0779 169.707 16.8148C169.707 15.5518 169.443 14.6044 168.916 13.9729C168.388 13.315 167.735 12.9861 166.956 12.9861C166.177 12.9861 165.524 13.315 164.996 13.9729C164.469 14.6044 164.205 15.5518 164.205 16.8148C164.205 18.0779 164.456 19.0384 164.959 19.6963C165.486 20.3278 166.152 20.6436 166.956 20.6436Z" fill="white"/>
<path d="M17.98 69.58C21.86 66.54 25.04 63.92 27.52 61.72C30 59.52 32.08 57.26 33.76 54.94C35.44 52.58 36.28 50.34 36.28 48.22C36.28 46.94 35.98 45.94 35.38 45.22C34.82 44.5 33.98 44.14 32.86 44.14C31.7 44.14 30.8 44.64 30.16 45.64C29.52 46.6 29.22 48.02 29.26 49.9H17.86C17.98 46.34 18.76 43.4 20.2 41.08C21.64 38.72 23.52 37 25.84 35.92C28.16 34.8 30.74 34.24 33.58 34.24C38.5 34.24 42.16 35.46 44.56 37.9C46.96 40.34 48.16 43.5 48.16 47.38C48.16 51.54 46.76 55.44 43.96 59.08C41.2 62.72 37.74 65.98 33.58 68.86H48.58V78.4H17.98V69.58ZM52.5002 56.44C52.5002 49.56 53.9002 44.14 56.7002 40.18C59.5002 36.22 63.9002 34.24 69.9002 34.24C75.9002 34.24 80.3002 36.22 83.1002 40.18C85.9402 44.14 87.3602 49.56 87.3602 56.44C87.3602 63.4 85.9602 68.86 83.1602 72.82C80.3602 76.78 75.9402 78.76 69.9002 78.76C63.8602 78.76 59.4402 76.78 56.6402 72.82C53.8802 68.86 52.5002 63.4 52.5002 56.44ZM75.7202 56.44C75.7202 52.84 75.3402 50.1 74.5802 48.22C73.8202 46.3 72.2602 45.34 69.9002 45.34C67.5402 45.34 65.9802 46.3 65.2202 48.22C64.4602 50.1 64.0802 52.84 64.0802 56.44C64.0802 60.12 64.4402 62.92 65.1602 64.84C65.9202 66.72 67.5002 67.66 69.9002 67.66C72.3002 67.66 73.8602 66.72 74.5802 64.84C75.3402 62.92 75.7202 60.12 75.7202 56.44ZM91.5737 69.58C95.4538 66.54 98.6338 63.92 101.114 61.72C103.594 59.52 105.674 57.26 107.354 54.94C109.034 52.58 109.874 50.34 109.874 48.22C109.874 46.94 109.574 45.94 108.974 45.22C108.414 44.5 107.574 44.14 106.454 44.14C105.294 44.14 104.394 44.64 103.754 45.64C103.114 46.6 102.814 48.02 102.854 49.9H91.4538C91.5738 46.34 92.3538 43.4 93.7938 41.08C95.2338 38.72 97.1138 37 99.4338 35.92C101.754 34.8 104.334 34.24 107.174 34.24C112.094 34.24 115.754 35.46 118.154 37.9C120.554 40.34 121.754 43.5 121.754 47.38C121.754 51.54 120.354 55.44 117.554 59.08C114.794 62.72 111.334 65.98 107.174 68.86H122.174V78.4H91.5737V69.58ZM126.634 48.22C126.794 43.7 128.194 40.24 130.834 37.84C133.474 35.4 137.154 34.18 141.874 34.18C144.954 34.18 147.574 34.72 149.734 35.8C151.934 36.84 153.594 38.28 154.714 40.12C155.834 41.92 156.394 43.96 156.394 46.24C156.394 48.96 155.734 51.14 154.414 52.78C153.094 54.38 151.594 55.46 149.914 56.02V56.26C154.754 58.06 157.174 61.5 157.174 66.58C157.174 69.1 156.594 71.32 155.434 73.24C154.274 75.16 152.594 76.66 150.394 77.74C148.194 78.82 145.574 79.36 142.534 79.36C137.534 79.36 133.574 78.16 130.654 75.76C127.774 73.32 126.274 69.6 126.154 64.6H137.614C137.534 66.2 137.874 67.44 138.634 68.32C139.394 69.2 140.534 69.64 142.054 69.64C143.214 69.64 144.114 69.28 144.754 68.56C145.434 67.84 145.774 66.88 145.774 65.68C145.774 64.16 145.274 63.04 144.274 62.32C143.314 61.6 141.734 61.24 139.534 61.24H137.434V51.7H139.474C140.994 51.74 142.274 51.5 143.314 50.98C144.394 50.42 144.934 49.32 144.934 47.68C144.934 46.44 144.634 45.52 144.034 44.92C143.434 44.28 142.614 43.96 141.574 43.96C140.414 43.96 139.554 44.38 138.994 45.22C138.474 46.02 138.174 47.02 138.094 48.22H126.634Z" fill="white"/>
</svg>
