<svg width="495" height="318" viewBox="0 0 495 318" fill="none" xmlns="http://www.w3.org/2000/svg">
<path d="M61.3638 0V17.4769H42.9537V70.3049H21.2142V17.4769H3V0H61.3638ZM88.9995 24.6266C91.2192 21.3827 93.9284 18.8009 97.1273 16.8811C100.326 14.8951 103.656 13.9021 107.116 13.9021V37.4364H100.947C96.8336 37.4364 93.7979 38.1646 91.8394 39.621C89.9461 41.0774 88.9995 43.6592 88.9995 47.3664V70.3049H67.26V14.2993H88.9995V24.6266ZM166.439 41.8056C166.439 43.3282 166.341 44.7846 166.145 46.1748H131.186C131.512 51.0075 133.503 53.4238 137.159 53.4238C139.51 53.4238 141.207 52.3315 142.251 50.1469H165.264C164.481 54.1189 162.816 57.6937 160.27 60.8713C157.789 63.9827 154.623 66.4653 150.771 68.3189C146.985 70.1063 142.806 71 138.236 71C132.753 71 127.856 69.8415 123.548 67.5245C119.304 65.2075 115.975 61.8974 113.559 57.5944C111.209 53.2252 110.034 48.1277 110.034 42.3021C110.034 36.4765 111.209 31.4121 113.559 27.1091C115.975 22.7399 119.304 19.3967 123.548 17.0797C127.856 14.7627 132.753 13.6042 138.236 13.6042C143.72 13.6042 148.584 14.7627 152.827 17.0797C157.136 19.3305 160.466 22.5744 162.816 26.8112C165.231 31.048 166.439 36.0462 166.439 41.8056ZM144.406 36.5427C144.406 34.689 143.818 33.2988 142.643 32.372C141.468 31.379 139.999 30.8825 138.236 30.8825C134.385 30.8825 132.132 32.7692 131.48 36.5427H144.406ZM170.377 42.3021C170.377 36.4103 171.356 31.3128 173.315 27.0098C175.338 22.6406 178.08 19.3305 181.54 17.0797C185 14.7627 188.885 13.6042 193.194 13.6042C196.784 13.6042 199.885 14.3655 202.497 15.8881C205.108 17.3445 207.099 19.3636 208.47 21.9455V14.2993H230.112V70.3049H208.47V62.6587C207.099 65.2406 205.108 67.2928 202.497 68.8154C199.885 70.2718 196.784 71 193.194 71C188.885 71 185 69.8746 181.54 67.6238C178.08 65.3068 175.338 61.9967 173.315 57.6937C171.356 53.3245 170.377 48.1939 170.377 42.3021ZM208.47 42.3021C208.47 39.3231 207.719 37.0061 206.218 35.351C204.716 33.696 202.79 32.8685 200.44 32.8685C198.09 32.8685 196.164 33.696 194.663 35.351C193.161 37.0061 192.41 39.3231 192.41 42.3021C192.41 45.2811 193.161 47.5981 194.663 49.2531C196.164 50.9082 198.09 51.7357 200.44 51.7357C202.79 51.7357 204.716 50.9082 206.218 49.2531C207.719 47.5981 208.47 45.2811 208.47 42.3021ZM264.453 71C259.23 71 254.595 70.1394 250.547 68.4182C246.565 66.697 243.399 64.3137 241.049 61.2685C238.698 58.2233 237.36 54.7809 237.034 50.9413H257.892C258.153 52.5963 258.839 53.821 259.948 54.6154C261.123 55.4098 262.592 55.807 264.355 55.807C265.465 55.807 266.346 55.5753 266.999 55.1119C267.652 54.5823 267.978 53.9534 267.978 53.2252C267.978 51.9674 267.293 51.0737 265.922 50.5441C264.551 50.0145 262.233 49.4186 258.969 48.7566C254.987 47.9622 251.69 47.1016 249.079 46.1748C246.533 45.248 244.28 43.6592 242.322 41.4084C240.428 39.1576 239.482 36.0462 239.482 32.0741C239.482 28.6317 240.363 25.5203 242.126 22.7399C243.954 19.8932 246.63 17.6755 250.156 16.0867C253.681 14.4317 257.957 13.6042 262.984 13.6042C270.426 13.6042 276.237 15.4578 280.415 19.165C284.658 22.8723 287.204 27.7049 288.053 33.6629H268.762C268.435 32.1403 267.75 30.9818 266.705 30.1874C265.661 29.3268 264.257 28.8965 262.494 28.8965C261.385 28.8965 260.536 29.1282 259.948 29.5916C259.361 29.9888 259.067 30.6177 259.067 31.4783C259.067 32.6037 259.753 33.4643 261.123 34.0601C262.494 34.5897 264.681 35.1524 267.684 35.7482C271.667 36.5427 275.029 37.4364 277.771 38.4294C280.513 39.4224 282.896 41.1436 284.919 43.593C286.943 45.9762 287.955 49.2862 287.955 53.5231C287.955 56.8331 287.009 59.8121 285.115 62.4601C283.222 65.1082 280.48 67.1935 276.889 68.7161C273.364 70.2387 269.219 71 264.453 71ZM355.044 14.2993V70.3049H333.305V61.765C331.607 64.4131 329.322 66.5646 326.45 68.2196C323.643 69.8746 320.28 70.7021 316.363 70.7021C310.031 70.7021 305.069 68.5506 301.479 64.2476C297.953 59.9445 296.191 54.1189 296.191 46.7706V14.2993H317.832V43.9902C317.832 46.6382 318.518 48.7566 319.889 50.3455C321.325 51.8681 323.218 52.6294 325.568 52.6294C327.984 52.6294 329.877 51.8681 331.248 50.3455C332.619 48.7566 333.305 46.6382 333.305 43.9902V14.2993H355.044ZM386.602 24.6266C388.822 21.3827 391.531 18.8009 394.73 16.8811C397.929 14.8951 401.258 13.9021 404.718 13.9021V37.4364H398.549C394.436 37.4364 391.4 38.1646 389.442 39.621C387.549 41.0774 386.602 43.6592 386.602 47.3664V70.3049H364.862V14.2993H386.602V24.6266ZM436.818 71C431.269 71 426.275 69.8415 421.836 67.5245C417.396 65.2075 413.904 61.8974 411.357 57.5944C408.877 53.2252 407.636 48.1277 407.636 42.3021C407.636 36.4765 408.877 31.4121 411.357 27.1091C413.904 22.7399 417.396 19.3967 421.836 17.0797C426.275 14.7627 431.269 13.6042 436.818 13.6042C442.367 13.6042 447.361 14.7627 451.801 17.0797C456.24 19.3967 459.7 22.7399 462.181 27.1091C464.727 31.4121 466 36.4765 466 42.3021C466 48.1277 464.727 53.2252 462.181 57.5944C459.7 61.8974 456.24 65.2075 451.801 67.5245C447.361 69.8415 442.367 71 436.818 71ZM436.818 51.9343C438.842 51.9343 440.539 51.1399 441.91 49.551C443.281 47.896 443.967 45.4797 443.967 42.3021C443.967 39.1245 443.281 36.7413 441.91 35.1524C440.539 33.4974 438.842 32.6699 436.818 32.6699C434.794 32.6699 433.097 33.4974 431.726 35.1524C430.355 36.7413 429.67 39.1245 429.67 42.3021C429.67 45.4797 430.322 47.896 431.628 49.551C432.999 51.1399 434.729 51.9343 436.818 51.9343Z" fill="white"/>
<path d="M6.61561 206.526C19.5795 196.368 30.2046 187.614 38.4908 180.264C46.777 172.913 53.7268 165.362 59.34 157.61C64.9533 149.725 67.7599 142.241 67.7599 135.157C67.7599 130.881 66.7575 127.539 64.7528 125.134C62.8817 122.728 60.0751 121.525 56.3329 121.525C52.4571 121.525 49.45 123.196 47.3116 126.537C45.1733 129.745 44.1709 134.489 44.3045 140.771H6.21466C6.61561 128.876 9.22176 119.053 14.0331 111.301C18.8445 103.416 25.126 97.6689 32.8776 94.0603C40.6292 90.3182 49.2495 88.4471 58.7386 88.4471C75.1774 88.4471 87.4063 92.5234 95.4252 100.676C103.444 108.829 107.454 119.387 107.454 132.351C107.454 146.25 102.776 159.281 93.4204 171.443C84.1987 183.605 72.6381 194.497 58.7386 204.12H108.857V235.995H6.61561V206.526ZM123.96 162.622C123.96 139.635 128.637 121.525 137.993 108.294C147.348 95.0627 162.05 88.4471 182.097 88.4471C202.144 88.4471 216.846 95.0627 226.201 108.294C235.69 121.525 240.435 139.635 240.435 162.622C240.435 185.877 235.757 204.12 226.401 217.351C217.046 230.582 202.278 237.198 182.097 237.198C161.916 237.198 147.148 230.582 137.792 217.351C128.571 204.12 123.96 185.877 123.96 162.622ZM201.543 162.622C201.543 150.594 200.273 141.439 197.734 135.157C195.194 128.742 189.982 125.535 182.097 125.535C174.212 125.535 168.999 128.742 166.46 135.157C163.921 141.439 162.651 150.594 162.651 162.622C162.651 174.918 163.854 184.273 166.26 190.688C168.799 196.97 174.078 200.111 182.097 200.111C190.116 200.111 195.328 196.97 197.734 190.688C200.273 184.273 201.543 174.918 201.543 162.622ZM256.518 206.526C269.482 196.368 280.107 187.614 288.393 180.264C296.679 172.913 303.629 165.362 309.242 157.61C314.855 149.725 317.662 142.241 317.662 135.157C317.662 130.881 316.66 127.539 314.655 125.134C312.784 122.728 309.977 121.525 306.235 121.525C302.359 121.525 299.352 123.196 297.214 126.537C295.075 129.745 294.073 134.489 294.207 140.771H256.117C256.518 128.876 259.124 119.053 263.935 111.301C268.747 103.416 275.028 97.6689 282.78 94.0603C290.531 90.3182 299.152 88.4471 308.641 88.4471C325.08 88.4471 337.308 92.5234 345.327 100.676C353.346 108.829 357.356 119.387 357.356 132.351C357.356 146.25 352.678 159.281 343.323 171.443C334.101 183.605 322.54 194.497 308.641 204.12H358.759V235.995H256.518V206.526ZM375.666 135.157C376.201 120.055 380.878 108.494 389.699 100.475C398.52 92.3229 410.816 88.2466 426.586 88.2466C436.877 88.2466 445.631 90.0509 452.848 93.6594C460.199 97.1343 465.745 101.946 469.488 108.093C473.23 114.108 475.101 120.924 475.101 128.542C475.101 137.63 472.896 144.914 468.485 150.393C464.075 155.739 459.063 159.348 453.45 161.219V162.021C469.621 168.035 477.707 179.529 477.707 196.502C477.707 204.922 475.769 212.339 471.893 218.755C468.017 225.17 462.404 230.182 455.053 233.79C447.703 237.399 438.949 239.203 428.791 239.203C412.085 239.203 398.854 235.193 389.098 227.174C379.475 219.022 374.463 206.593 374.062 189.886H412.353C412.085 195.232 413.221 199.376 415.761 202.316C418.3 205.256 422.109 206.726 427.188 206.726C431.064 206.726 434.071 205.523 436.209 203.118C438.481 200.712 439.617 197.504 439.617 193.495C439.617 188.416 437.946 184.674 434.605 182.268C431.398 179.863 426.119 178.66 418.768 178.66H411.751V146.785H418.567C423.646 146.918 427.923 146.117 431.398 144.379C435.006 142.508 436.81 138.833 436.81 133.353C436.81 129.21 435.808 126.136 433.803 124.131C431.799 121.993 429.059 120.924 425.584 120.924C421.708 120.924 418.835 122.327 416.964 125.134C415.226 127.807 414.224 131.148 413.956 135.157H375.666Z" fill="white"/>
<path d="M281 140.994C282.185 139.486 282.59 139.263 283.795 137.72C294.767 123.665 306.642 108.453 320.744 97.5737C324.443 94.7197 327.894 92.779 331.129 91.6211C337.025 93.6949 341.888 96.6582 345.717 100.511C354.151 108.721 358.368 119.286 358.368 132.207C358.368 145.801 353.8 158.586 344.663 170.565C335.667 182.408 327.134 192.436 313.5 200.646H359V236.783H249.994V203.068C268.829 189.61 283.729 177.429 294.693 166.527C305.657 155.491 311.138 145.195 311.138 135.639C311.138 132.409 310.366 129.918 308.819 128.169C307.414 126.42 305.516 125.545 303.126 125.545C300.315 125.545 298.066 126.958 296.379 129.784C294.833 132.476 294.078 135.341 294.5 140.994H288H281Z" fill="url(#paint0_linear_406_211)"/>
<path fill-rule="evenodd" clip-rule="evenodd" d="M207.237 91.2769C201.645 103.092 195.905 122.37 218.706 153.489C229.088 167.658 232.433 167.144 241 167.994C239.487 185.734 235.064 206.927 226.5 218.008C216.099 231.332 205.43 237.994 184.064 237.994C162.558 237.994 147.902 231.332 137.5 218.008C128.881 206.703 125.38 191.232 124 172.994C132.032 174.626 137.876 174.345 147.086 169.341C162.452 160.992 165.528 139.832 168.474 119.568C170.151 108.032 171.785 96.7875 175.621 88.3618C178.333 88.1167 181.148 87.9941 184.064 87.9941C192.68 87.9941 200.404 89.0884 207.237 91.2769ZM197.769 138.667C200.019 144.05 201.143 152.126 201.143 162.893C201.143 173.795 200.019 182.005 197.769 187.523C195.521 192.906 190.953 195.598 184.064 195.598C177.037 195.598 172.398 192.906 170.149 187.523C167.9 182.005 166.775 173.795 166.775 162.893C166.775 152.126 167.9 144.05 170.149 138.667C172.398 133.149 177.037 130.39 184.064 130.39C190.953 130.39 195.521 133.149 197.769 138.667Z" fill="url(#paint1_linear_406_211)"/>
<path d="M49.5567 88.9941C58.2029 102.588 65.4866 118.286 71.4073 131.295C72.3937 132.501 73.414 133.763 74.4679 135.066C81.797 144.13 90.5535 151.411 101 159.5C99.54 161.957 97.3568 166.731 96.0567 169.341C89.5002 182.5 79.1913 192.436 65.5567 200.646H110.607V236.783H2.1131V202.702C20.7066 189.388 35.4355 177.33 46.2998 166.527C57.2637 155.491 62.7457 145.195 62.7457 135.639C62.7457 132.409 61.9726 129.918 60.4264 128.169C59.0208 126.42 57.1232 125.545 54.7336 125.545C51.9223 125.545 49.6733 126.958 47.9865 129.784C46.4403 132.476 45.8781 136.648 46.2998 142.301H1.18071C1.13166 141.684 1.08987 141.019 1.05667 140.306C1.69834 128.686 4.48011 119.055 9.40198 111.413C14.7434 103.337 21.631 97.4151 30.0648 93.6469C35.8419 91.0655 42.988 89.8073 49.5567 88.9941Z" fill="url(#paint2_linear_406_211)"/>
<mask id="mask0_406_211" style="mask-type:alpha" maskUnits="userSpaceOnUse" x="374" y="88" width="104" height="152">
<path d="M375.623 135.157C376.157 120.055 380.835 108.494 389.656 100.475C398.477 92.3229 410.772 88.2466 426.543 88.2466C436.834 88.2466 445.588 90.0509 452.805 93.6594C460.156 97.1343 465.702 101.946 469.444 108.093C473.186 114.108 475.057 120.924 475.057 128.542C475.057 137.63 472.852 144.914 468.442 150.393C464.031 155.739 459.019 159.348 453.406 161.219V162.021C469.578 168.035 477.663 179.529 477.663 196.502C477.663 204.922 475.726 212.339 471.85 218.755C467.974 225.17 462.361 230.182 455.01 233.79C447.659 237.399 438.905 239.203 428.748 239.203C412.042 239.203 398.811 235.193 389.054 227.174C379.432 219.022 374.42 206.593 374.019 189.886H412.309C412.042 195.232 413.178 199.376 415.717 202.316C418.257 205.256 422.066 206.726 427.144 206.726C431.02 206.726 434.027 205.523 436.166 203.118C438.438 200.712 439.574 197.504 439.574 193.495C439.574 188.416 437.903 184.674 434.562 182.268C431.354 179.863 426.075 178.66 418.724 178.66H411.708V146.785H418.524C423.603 146.918 427.879 146.117 431.354 144.379C434.963 142.508 436.767 138.833 436.767 133.353C436.767 129.21 435.765 126.136 433.76 124.131C431.755 121.993 429.015 120.924 425.541 120.924C421.665 120.924 418.791 122.327 416.92 125.134C415.183 127.807 414.18 131.148 413.913 135.157H375.623Z" fill="white"/>
</mask>
<g mask="url(#mask0_406_211)">
<path d="M409 175V147L449 170L409 175Z" fill="url(#paint3_linear_406_211)"/>
</g>
<defs>
<linearGradient id="paint0_linear_406_211" x1="1.05664" y1="87.9941" x2="324.965" y2="292.026" gradientUnits="userSpaceOnUse">
<stop stop-color="#FF7170"/>
<stop offset="1" stop-color="#FFE57F"/>
</linearGradient>
<linearGradient id="paint1_linear_406_211" x1="1.05664" y1="87.9941" x2="324.965" y2="292.026" gradientUnits="userSpaceOnUse">
<stop stop-color="#FF7170"/>
<stop offset="1" stop-color="#FFE57F"/>
</linearGradient>
<linearGradient id="paint2_linear_406_211" x1="1.05664" y1="87.9941" x2="324.965" y2="292.026" gradientUnits="userSpaceOnUse">
<stop stop-color="#FF7170"/>
<stop offset="1" stop-color="#FFE57F"/>
</linearGradient>
<linearGradient id="paint3_linear_406_211" x1="429" y1="147" x2="429" y2="175" gradientUnits="userSpaceOnUse">
<stop stop-color="#FFB900"/>
<stop offset="1" stop-color="#F27921"/>
</linearGradient>
</defs>
</svg>
