<svg width="34" height="38" viewBox="0 0 34 38" fill="none" xmlns="http://www.w3.org/2000/svg">
<path d="M22.059 18.05C22.059 19.209 21.204 20.159 20.121 20.159C19.057 20.159 18.183 19.209 18.183 18.05C18.183 16.891 19.038 15.941 20.121 15.941C21.204 15.941 22.059 16.891 22.059 18.05ZM13.186 15.941C12.103 15.941 11.248 16.891 11.248 18.05C11.248 19.209 12.122 20.159 13.186 20.159C14.269 20.159 15.124 19.209 15.124 18.05C15.143 16.891 14.269 15.941 13.186 15.941ZM33.25 3.914V38C28.4633 33.77 29.9942 35.1702 24.434 30.001L25.441 33.516H3.895C1.748 33.516 0 31.768 0 29.602V3.914C0 1.748 1.748 0 3.895 0H29.355C31.502 0 33.25 1.748 33.25 3.914ZM27.835 21.926C27.835 15.808 25.099 10.849 25.099 10.849C22.363 8.797 19.76 8.854 19.76 8.854L19.494 9.158C22.724 10.146 24.225 11.571 24.225 11.571C19.7117 9.09736 14.41 9.09692 10.032 11.02C9.329 11.343 8.911 11.571 8.911 11.571C8.911 11.571 10.488 10.07 13.908 9.082L13.718 8.854C13.718 8.854 11.115 8.797 8.379 10.849C8.379 10.849 5.643 15.808 5.643 21.926C5.643 21.926 7.239 24.681 11.438 24.814C11.438 24.814 12.141 23.959 12.711 23.237C10.298 22.515 9.386 20.995 9.386 20.995C9.66551 21.1906 10.1264 21.4442 10.165 21.47C13.372 23.2659 17.9274 23.8544 22.021 22.135C22.686 21.888 23.427 21.527 24.206 21.014C24.206 21.014 23.256 22.572 20.767 23.275C21.337 23.997 22.021 24.814 22.021 24.814C26.22 24.681 27.835 21.926 27.835 21.926Z" fill="white"/>
</svg>
