<svg width="39" height="38" viewBox="0 0 39 38" fill="none" xmlns="http://www.w3.org/2000/svg">
<path d="M15.6772 25.9626C16.553 47.4075 21.9864 34.8109 24.5502 25.9351C25.8147 23.7967 33.7319 24.5976 36.2181 24.1707C39.9866 23.5236 38.7037 21.5346 37.6347 20.5179L30.9869 16.9904C26.1549 14.8587 27.0275 10.3456 28.0677 8.35549C29.6222 5.12502 29.2258 2.53 28.8333 1.6363C26.1418 -2.11937 23.012 3.35344 21.7835 6.5593C21.3836 9.14277 19.2184 12.5936 13.7571 5.72926C8.29589 -1.13512 6.04397 0.984215 5.60067 2.90193C5.56442 4.14119 6.40033 7.63353 10.034 11.6887C14.576 16.7578 9.84363 18.7716 5.75706 20.6931C2.48781 22.2302 0.867233 24.1379 0.465599 24.8996C-0.0663386 26.7395 0.586898 29.6855 7.45535 26.75C14.3238 23.8145 15.7984 25.002 15.6772 25.9626Z" fill="#FFC800"/>
</svg>
