<svg width="192" height="189" viewBox="0 0 192 189" fill="none" xmlns="http://www.w3.org/2000/svg">
<path fill-rule="evenodd" clip-rule="evenodd" d="M67.0099 158.232C78.6821 178.945 96.1904 188.708 103.485 191H135.098C163.305 177.407 183.326 127.891 189.811 104.832C197.917 74.0864 181.57 62.6242 172.384 60.7364C145.797 66.8855 141.312 85.953 142.393 94.7182C140.123 151.355 125.236 152.838 118.076 146.5C104.458 148.765 92.4076 85.1439 88.0845 53.05C83.8696 4.82812 52.2845 -2.1031 37.0188 0.459024C-4.80661 8.54994 -2.83423 42.1272 3.38014 57.9045C31.9122 76.0281 57.6883 132.341 67.0099 158.232ZM41.0715 9.35907C27.0216 12.8651 2.73145 23.68 17.9703 38.8909C24.0495 44.0151 41.3957 48.1954 62.1463 23.9227C63.8441 19.0682 62.006 9.35907 41.0715 9.35907ZM157.794 74.4909C163.062 80.5591 175.221 91.6437 181.705 74.4909C178.407 71.5242 169.008 67.3709 157.794 74.4909Z" fill="#F911BA"/>
</svg>
