<svg width="117" height="219" viewBox="0 0 117 219" fill="none" xmlns="http://www.w3.org/2000/svg">
<path fill-rule="evenodd" clip-rule="evenodd" d="M115.07 215.447L115.066 215.439C115.068 215.441 115.07 215.445 115.07 215.445C115.072 215.447 115.071 215.448 115.07 215.447Z" fill="#F911BA"/>
<path d="M60.5001 69L50.8509 83C51.6774 88.7033 52.8087 94.9412 54.3046 101.5C54.9936 94.7644 56.8457 92.965 61.759 88.1915L61.7597 88.1908C62.584 87.3899 63.4945 86.5053 64.5001 85.4996C70.1001 79.8994 71.8335 74.1664 72.0001 72V48.5C72.0001 45.3 73.3335 41.1667 74.0001 39.5C71.3335 43.8333 65.4001 53.2 63.0001 56C60.6001 58.8 60.3335 65.8333 60.5001 69Z" fill="#F911BA"/>
<path d="M47.0001 62.4997C46.6001 60.8997 48.1668 61.833 49.0001 62.4997V51C56.2002 38.2 57.3334 31.6667 57 30C50.1202 12 50.034 2.5 50.8509 0C48.0673 1 42.8001 6.1 44 18.5C45.1999 30.9 43.5 34.6667 42.5001 35C37.3001 48.6 43.3334 58.9998 47.0001 62.4997Z" fill="#F911BA"/>
<path d="M47.0001 62.4997C47.313 63.7513 48.0543 72.8364 48.6017 80.0841C48.754 82.1011 48.8913 83.9757 49.0001 85.4996C48.848 90.3671 50.7319 99.7693 53.9339 110.891C54.0212 111.194 54.1093 111.498 54.1985 111.803C54.5055 112.855 54.824 113.922 55.1533 115C58.565 126.173 63.1396 138.648 68.2179 149.84C73.5063 161.496 79.3412 171.761 84.9783 177.718C85.9934 178.79 87.0021 179.723 88.0001 180.5C90.6339 182.548 93.1406 184.851 95.5 187.295C103.341 195.419 109.554 205.107 113.4 212.227C114.017 213.369 114.573 214.446 115.066 215.439C115.068 215.441 115.07 215.445 115.07 215.445C115.072 215.447 115.071 215.448 115.07 215.447C115.632 216.582 116.11 217.608 116.5 218.5V212C115.707 209.422 111.276 203.378 106.034 196.842C105.296 195.922 104.543 194.993 103.781 194.062C99.0368 188.264 93.9757 182.41 90.5001 178.5C87.1966 174.701 84.1382 170.699 81.309 166.55C80.6214 165.542 79.9473 164.525 79.2865 163.5C73.736 154.892 69.1245 145.731 65.3162 136.5L65.2879 136.431C64.2678 133.956 63.3054 131.476 62.3981 129C58.9536 119.6 56.3035 110.264 54.3046 101.5C52.8087 94.9412 51.6774 88.7033 50.8509 83C49.6736 74.8761 49.1145 67.8368 49.0001 62.4997C48.1668 61.833 46.6001 60.8997 47.0001 62.4997Z" fill="#F911BA"/>
<path d="M50 141.501C42.8333 136.167 26.2 126.2 17 129C21.3333 131.333 31.6 138.6 38 149C41 151 48.9 154.9 56.5 154.5C60.1667 154 69.5901 154.1 72.3901 158.5C70.9717 155.738 69.5768 152.835 68.2179 149.84C66.3382 148.457 60.4067 139.609 50 141.501Z" fill="#F911BA"/>
<path d="M72.0001 106C64.4002 111.6 62.4322 123.667 62.3981 129C63.3054 131.476 64.2678 133.956 65.2879 136.431C63.5321 131.989 74.3445 121.308 80 116.5C85.5147 111.445 85.1159 90.3378 85.0154 85.0163L85.0154 85.015C85.0065 84.5475 85 84.202 85 84C85 82.499 85.9388 80.3409 86.7595 78.7938C86.0287 79.6346 84.7211 80.964 82.5 83C77.7 87.4 73.5001 100.167 72.0001 106Z" fill="#F911BA"/>
<path d="M79.5 149V163L79.2865 163.5C79.9473 164.525 80.6214 165.542 81.309 166.55C81.391 163.582 94.1642 148.613 101 141C99.4 125.4 101.667 113.5 103 109.5C91.8 118.3 88.3333 131.833 88 137.5C85.6 140.7 81.3333 146.5 79.5 149Z" fill="#F911BA"/>
<path d="M106 167.5C99.6001 175.5 101.667 188.167 103.5 193.5L103.781 194.062C104.543 194.993 105.296 195.922 106.034 196.842C108.843 183.747 114.176 177.16 116.5 175.5V136C107 147.5 108.5 160 108 163.5C107.6 166.3 106.5 167.333 106 167.5Z" fill="#F911BA"/>
<path d="M113 212C109.333 208.167 99.1 201.5 87.5 205.5C81.1667 202.5 65.1 197.8 51.5 203C56.1667 204 67.8 208.1 77 216.5C80.1667 217.667 88.3 219.3 95.5 216.5C100.167 214.833 110.2 212 113 214C114.533 215.095 115.037 215.441 115.07 215.447L115.066 215.439C114.573 214.446 114.017 213.369 113.4 212.227L113 212Z" fill="#F911BA"/>
<path d="M65 175.5C61.6667 173 50.7 168.6 33.5 171C40.3333 173 54.6 178.8 57 186C58.1667 186.833 61.9 188.1 65.5 188.5C70 189 83.5 182.5 95 187L95.5 187.295C93.1406 184.851 90.6339 182.548 88.0001 180.5C87.0021 179.723 85.9934 178.79 84.9783 177.718C83.7068 176.697 80.3641 173.366 65 175.5Z" fill="#F911BA"/>
<path d="M48.5 80C47.8333 75.5 42.9 65.4 28.5 61C25.1667 55.5 15.1 44.1 1.5 42.5C6.5 47.3333 16.5 58.8 16.5 66C18.5 69.1667 25 75.8 35 77C38.1667 77.5 45.8353 81.1 49.0353 87.5C48.9936 86.7679 48.9814 86.0993 49.0001 85.4996C48.8913 83.9757 48.754 82.1011 48.6017 80.0841L48.5 80Z" fill="#F911BA"/>
<path d="M32.5 100C27.3333 94.5001 13.6 84.1999 0 86.9999C3.5 87.8333 13.3 93.7 24.5 110.5C27.3333 111.833 34.5 114.2 40.5 113C44.3333 113 52.6 111.4 55 115H55.1533C54.824 113.922 54.5055 112.855 54.1985 111.803C54.1093 111.498 54.0212 111.194 53.9339 110.891C50.8711 105.873 42.0305 97.2204 32.5 100Z" fill="#F911BA"/>
</svg>
