<svg width="466" height="241" viewBox="0 0 466 241" fill="none" xmlns="http://www.w3.org/2000/svg">
<path d="M59.3638 0V17.4769H40.9537V70.3049H19.2142V17.4769H1V0H59.3638ZM86.9995 24.6266C89.2192 21.3827 91.9284 18.8009 95.1273 16.8811C98.3263 14.8951 101.656 13.9021 105.116 13.9021V37.4364H98.9466C94.8336 37.4364 91.7979 38.1646 89.8394 39.621C87.9461 41.0774 86.9995 43.6592 86.9995 47.3664V70.3049H65.26V14.2993H86.9995V24.6266ZM164.439 41.8056C164.439 43.3282 164.341 44.7846 164.145 46.1748H129.186C129.512 51.0075 131.503 53.4238 135.159 53.4238C137.51 53.4238 139.207 52.3315 140.251 50.1469H163.264C162.481 54.1189 160.816 57.6937 158.27 60.8713C155.789 63.9827 152.623 66.4653 148.771 68.3189C144.985 70.1063 140.806 71 136.236 71C130.753 71 125.856 69.8415 121.548 67.5245C117.304 65.2075 113.975 61.8974 111.559 57.5944C109.209 53.2252 108.034 48.1277 108.034 42.3021C108.034 36.4765 109.209 31.4121 111.559 27.1091C113.975 22.7399 117.304 19.3967 121.548 17.0797C125.856 14.7627 130.753 13.6042 136.236 13.6042C141.72 13.6042 146.584 14.7627 150.827 17.0797C155.136 19.3305 158.466 22.5744 160.816 26.8112C163.231 31.048 164.439 36.0462 164.439 41.8056ZM142.406 36.5427C142.406 34.689 141.818 33.2988 140.643 32.372C139.468 31.379 137.999 30.8825 136.236 30.8825C132.385 30.8825 130.132 32.7692 129.48 36.5427H142.406ZM168.377 42.3021C168.377 36.4103 169.356 31.3128 171.315 27.0098C173.338 22.6406 176.08 19.3305 179.54 17.0797C183 14.7627 186.885 13.6042 191.194 13.6042C194.784 13.6042 197.885 14.3655 200.497 15.8881C203.108 17.3445 205.099 19.3636 206.47 21.9455V14.2993H228.112V70.3049H206.47V62.6587C205.099 65.2406 203.108 67.2928 200.497 68.8154C197.885 70.2718 194.784 71 191.194 71C186.885 71 183 69.8746 179.54 67.6238C176.08 65.3068 173.338 61.9967 171.315 57.6937C169.356 53.3245 168.377 48.1939 168.377 42.3021ZM206.47 42.3021C206.47 39.3231 205.719 37.0061 204.218 35.351C202.716 33.696 200.79 32.8685 198.44 32.8685C196.09 32.8685 194.164 33.696 192.663 35.351C191.161 37.0061 190.41 39.3231 190.41 42.3021C190.41 45.2811 191.161 47.5981 192.663 49.2531C194.164 50.9082 196.09 51.7357 198.44 51.7357C200.79 51.7357 202.716 50.9082 204.218 49.2531C205.719 47.5981 206.47 45.2811 206.47 42.3021ZM262.453 71C257.23 71 252.595 70.1394 248.547 68.4182C244.565 66.697 241.399 64.3137 239.049 61.2685C236.698 58.2233 235.36 54.7809 235.034 50.9413H255.892C256.153 52.5963 256.839 53.821 257.948 54.6154C259.123 55.4098 260.592 55.807 262.355 55.807C263.465 55.807 264.346 55.5753 264.999 55.1119C265.652 54.5823 265.978 53.9534 265.978 53.2252C265.978 51.9674 265.293 51.0737 263.922 50.5441C262.551 50.0145 260.233 49.4186 256.969 48.7566C252.987 47.9622 249.69 47.1016 247.079 46.1748C244.533 45.248 242.28 43.6592 240.322 41.4084C238.428 39.1576 237.482 36.0462 237.482 32.0741C237.482 28.6317 238.363 25.5203 240.126 22.7399C241.954 19.8932 244.63 17.6755 248.156 16.0867C251.681 14.4317 255.957 13.6042 260.984 13.6042C268.426 13.6042 274.237 15.4578 278.415 19.165C282.658 22.8723 285.204 27.7049 286.053 33.6629H266.762C266.435 32.1403 265.75 30.9818 264.705 30.1874C263.661 29.3268 262.257 28.8965 260.494 28.8965C259.385 28.8965 258.536 29.1282 257.948 29.5916C257.361 29.9888 257.067 30.6177 257.067 31.4783C257.067 32.6037 257.753 33.4643 259.123 34.0601C260.494 34.5897 262.681 35.1524 265.684 35.7482C269.667 36.5427 273.029 37.4364 275.771 38.4294C278.513 39.4224 280.896 41.1436 282.919 43.593C284.943 45.9762 285.955 49.2862 285.955 53.5231C285.955 56.8331 285.009 59.8121 283.115 62.4601C281.222 65.1082 278.48 67.1935 274.889 68.7161C271.364 70.2387 267.219 71 262.453 71ZM353.044 14.2993V70.3049H331.305V61.765C329.607 64.413 327.322 66.5646 324.45 68.2196C321.643 69.8746 318.281 70.7021 314.363 70.7021C308.031 70.7021 303.069 68.5506 299.479 64.2476C295.953 59.9445 294.191 54.1189 294.191 46.7706V14.2993H315.832V43.9902C315.832 46.6382 316.518 48.7566 317.889 50.3455C319.325 51.8681 321.218 52.6294 323.568 52.6294C325.984 52.6294 327.877 51.8681 329.248 50.3455C330.619 48.7566 331.305 46.6382 331.305 43.9902V14.2993H353.044ZM384.602 24.6266C386.822 21.3827 389.531 18.8009 392.73 16.8811C395.929 14.8951 399.258 13.9021 402.718 13.9021V37.4364H396.549C392.436 37.4364 389.4 38.1646 387.442 39.621C385.549 41.0774 384.602 43.6592 384.602 47.3664V70.3049H362.862V14.2993H384.602V24.6266ZM434.818 71C429.269 71 424.275 69.8415 419.836 67.5245C415.396 65.2075 411.904 61.8974 409.357 57.5944C406.877 53.2252 405.636 48.1277 405.636 42.3021C405.636 36.4765 406.877 31.4121 409.357 27.1091C411.904 22.7399 415.396 19.3967 419.836 17.0797C424.275 14.7627 429.269 13.6042 434.818 13.6042C440.367 13.6042 445.361 14.7627 449.801 17.0797C454.24 19.3967 457.7 22.7399 460.181 27.1091C462.727 31.4121 464 36.4765 464 42.3021C464 48.1277 462.727 53.2252 460.181 57.5944C457.7 61.8974 454.24 65.2075 449.801 67.5245C445.361 69.8415 440.367 71 434.818 71ZM434.818 51.9343C436.842 51.9343 438.539 51.1399 439.91 49.551C441.281 47.896 441.967 45.4797 441.967 42.3021C441.967 39.1245 441.281 36.7413 439.91 35.1524C438.539 33.4974 436.842 32.6699 434.818 32.6699C432.794 32.6699 431.097 33.4974 429.726 35.1524C428.355 36.7413 427.67 39.1245 427.67 42.3021C427.67 45.4797 428.322 47.896 429.628 49.551C430.999 51.1399 432.729 51.9343 434.818 51.9343Z" fill="white"/>
<path d="M0.603908 205.786C18.587 192.358 32.8124 180.205 43.2801 169.329C53.7479 158.318 58.9817 148.045 58.9817 138.511C58.9817 135.288 58.2437 132.804 56.7674 131.058C55.4254 129.313 53.6137 128.44 51.3322 128.44C48.6482 128.44 46.501 129.85 44.8905 132.67C43.4143 135.356 42.8775 139.518 43.2801 145.158H0C0.402606 132.67 3.08665 122.397 8.05211 114.34C13.1518 106.284 19.7277 100.375 27.7798 96.6154C35.8319 92.8556 44.6892 90.9756 54.3518 90.9756C71.5296 90.9756 84.0775 95.138 91.9954 103.464C100.048 111.655 104.074 122.196 104.074 135.087C104.074 148.65 99.7123 161.406 90.9889 173.357C82.4 185.173 71.5967 195.178 58.5791 203.369H104.677V239.423H0.603908V205.786ZM115.428 165.703C115.428 142.472 120.327 124.21 130.123 110.916C140.054 97.6225 155.286 90.9756 175.819 90.9756C196.218 90.9756 211.383 97.69 221.313 111.118C231.245 124.412 236.21 142.607 236.21 165.703C236.21 188.934 231.245 207.263 221.313 220.691C211.383 233.985 196.218 240.632 175.819 240.632C155.286 240.632 140.054 233.985 130.123 220.691C120.327 207.263 115.428 188.934 115.428 165.703ZM192.124 165.703C192.124 154.96 191.051 146.903 188.904 141.532C186.757 136.027 182.395 133.274 175.819 133.274C169.109 133.274 164.681 136.027 162.533 141.532C160.386 146.903 159.312 154.96 159.312 165.703C159.312 176.58 160.386 184.771 162.533 190.276C164.681 195.647 169.109 198.333 175.819 198.333C182.395 198.333 186.757 195.647 188.904 190.276C191.051 184.771 192.124 176.58 192.124 165.703ZM247.907 205.786C265.891 192.358 280.116 180.205 290.584 169.329C301.051 158.318 306.285 148.045 306.285 138.511C306.285 135.288 305.548 132.804 304.071 131.058C302.729 129.313 300.918 128.44 298.636 128.44C295.951 128.44 293.805 129.85 292.194 132.67C290.718 135.356 290.181 139.518 290.584 145.158H247.304C247.706 132.67 250.391 122.397 255.356 114.34C260.456 106.284 267.031 100.375 275.083 96.6154C283.135 92.8556 291.993 90.9756 301.655 90.9756C318.833 90.9756 331.381 95.138 339.299 103.464C347.351 111.655 351.377 122.196 351.377 135.087C351.377 148.65 347.016 161.406 338.292 173.357C329.704 185.173 318.9 195.178 305.883 203.369H351.981V239.423H247.907V205.786ZM361.926 205.786C379.91 192.358 394.135 180.205 404.603 169.329C415.07 158.318 420.304 148.045 420.304 138.511C420.304 135.288 419.566 132.804 418.09 131.058C416.748 129.313 414.936 128.44 412.655 128.44C409.971 128.44 407.823 129.85 406.213 132.67C404.737 135.356 404.2 139.518 404.603 145.158H361.323C361.725 132.67 364.409 122.397 369.375 114.34C374.475 106.284 381.05 100.375 389.102 96.6154C397.154 92.8556 406.012 90.9756 415.674 90.9756C432.852 90.9756 445.401 95.138 453.318 103.464C461.37 111.655 465.396 122.196 465.396 135.087C465.396 148.65 461.035 161.406 452.311 173.357C443.723 185.173 432.92 195.178 419.902 203.369H466V239.423H361.926V205.786Z" fill="white"/>
<path d="M276.673 145.158C277.804 143.653 278.944 142.127 280.095 140.587C290.57 126.565 301.908 111.388 315.372 100.533C318.903 97.6858 322.198 95.7495 325.287 94.5942C330.916 96.6633 335.559 99.6198 339.214 103.464C347.267 111.655 351.293 122.196 351.293 135.087C351.293 148.65 346.931 161.406 338.208 173.357C329.619 185.173 318.815 195.178 305.798 203.369H351.897V239.423H247.823V205.786C265.806 192.358 280.031 180.205 290.499 169.329C300.967 158.318 306.201 148.045 306.201 138.511C306.201 135.288 305.463 132.804 303.986 131.058C302.645 129.313 300.833 128.44 298.551 128.44C295.867 128.44 293.72 129.85 292.11 132.67C290.633 135.356 290.097 139.518 290.499 145.158H276.673Z" fill="url(#paint0_linear_406_211)"/>
<path fill-rule="evenodd" clip-rule="evenodd" d="M197.858 94.2508C192.52 106.039 187.039 125.273 208.808 156.32C218.72 170.457 227.481 176.711 235.66 177.56C234.215 195.259 229.405 209.636 221.229 220.691C211.299 233.985 196.133 240.632 175.734 240.632C155.202 240.632 139.97 233.985 130.039 220.691C121.81 209.412 117.037 194.675 115.72 176.479C123.388 178.107 131.637 177.129 140.43 172.136C155.1 163.806 158.037 142.694 160.849 122.477C162.45 110.968 164.011 99.7488 167.673 91.3424C170.263 91.0978 172.95 90.9756 175.734 90.9756C183.96 90.9756 191.335 92.0673 197.858 94.2508ZM188.819 141.532C190.967 146.903 192.04 154.96 192.04 165.703C192.04 176.58 190.967 184.771 188.819 190.276C186.672 195.647 182.311 198.333 175.734 198.333C169.025 198.333 164.596 195.647 162.448 190.276C160.302 184.771 159.228 176.58 159.228 165.703C159.228 154.96 160.302 146.903 162.448 141.532C164.596 136.027 169.025 133.274 175.734 133.274C182.311 133.274 186.672 136.027 188.819 141.532Z" fill="url(#paint1_linear_406_211)"/>
<path d="M45.376 91.5352C53.631 105.098 61.5141 121.198 67.1669 134.178C68.1087 135.38 69.0828 136.639 70.089 137.94C77.0864 146.983 85.6349 158.03 95.6088 166.1C94.2147 168.551 92.6465 170.97 90.9044 173.357C82.3155 185.173 71.5122 195.178 58.4947 203.369H104.593V239.423H1.00862V205.42C18.7607 192.137 32.823 180.107 43.1956 169.329C53.6634 158.318 58.8973 148.045 58.8973 138.511C58.8973 135.288 58.1592 132.804 56.6829 131.058C55.3409 129.313 53.5292 128.44 51.2477 128.44C48.5637 128.44 46.4165 129.85 44.8061 132.67C43.3298 135.356 42.793 139.518 43.1956 145.158H0.11842C0.0715887 144.542 0.0316978 143.879 0 143.168C0.612625 131.574 3.26851 121.965 7.96764 114.34C13.0673 106.284 19.6432 100.375 27.6953 96.6154C33.211 94.0399 39.1046 92.3465 45.376 91.5352Z" fill="url(#paint2_linear_406_211)"/>
<path d="M363.836 127.044C364.706 128.801 365.569 130.568 366.428 132.328C368.58 136.735 370.709 141.097 372.877 145.158H361.238C361.453 138.488 362.319 132.45 363.836 127.044Z" fill="url(#paint3_linear_406_211)"/>
<path d="M408.72 164.611C421.809 161.06 426.028 154.249 426.376 150.569C430.52 141.175 442.449 120.663 457.013 113.761C458.17 113.212 459.222 112.923 460.175 112.864C463.599 119.272 465.312 126.68 465.312 135.087C465.312 148.65 460.95 161.406 452.227 173.357C443.638 185.173 432.835 195.178 419.817 203.369H465.915V239.423H361.842V205.786C379.825 192.358 394.05 180.205 404.518 169.329C406.028 167.741 407.428 166.168 408.72 164.611Z" fill="url(#paint4_linear_406_211)"/>
<defs>
<linearGradient id="paint0_linear_406_211" x1="0" y1="90.9756" x2="351.51" y2="379.846" gradientUnits="userSpaceOnUse">
<stop stop-color="#FF7170"/>
<stop offset="1" stop-color="#FFE57F"/>
</linearGradient>
<linearGradient id="paint1_linear_406_211" x1="0" y1="90.9756" x2="351.51" y2="379.846" gradientUnits="userSpaceOnUse">
<stop stop-color="#FF7170"/>
<stop offset="1" stop-color="#FFE57F"/>
</linearGradient>
<linearGradient id="paint2_linear_406_211" x1="0" y1="90.9756" x2="351.51" y2="379.846" gradientUnits="userSpaceOnUse">
<stop stop-color="#FF7170"/>
<stop offset="1" stop-color="#FFE57F"/>
</linearGradient>
<linearGradient id="paint3_linear_406_211" x1="0" y1="90.9756" x2="351.51" y2="379.846" gradientUnits="userSpaceOnUse">
<stop stop-color="#FF7170"/>
<stop offset="1" stop-color="#FFE57F"/>
</linearGradient>
<linearGradient id="paint4_linear_406_211" x1="0" y1="90.9756" x2="351.51" y2="379.846" gradientUnits="userSpaceOnUse">
<stop stop-color="#FF7170"/>
<stop offset="1" stop-color="#FFE57F"/>
</linearGradient>
</defs>
</svg>
