<svg width="113" height="59" viewBox="0 0 113 59" fill="none" xmlns="http://www.w3.org/2000/svg">
<path d="M0.146441 49.8608C4.50715 46.6047 7.95665 43.6578 10.495 41.0203C13.0333 38.3503 14.3024 35.8593 14.3024 33.5474C14.3024 32.7659 14.1235 32.1634 13.7655 31.7402C13.4401 31.317 13.0007 31.1052 12.4475 31.1052C11.7967 31.1052 11.276 31.4471 10.8855 32.1309C10.5275 32.7822 10.3973 33.7916 10.495 35.1592H0C0.0976276 32.1309 0.748479 29.6399 1.95255 27.6862C3.18918 25.7325 4.78375 24.2997 6.7363 23.3881C8.68885 22.4764 10.8367 22.0205 13.1797 22.0205C17.3452 22.0205 20.3879 23.0298 22.3079 25.0487C24.2605 27.0349 25.2367 29.5911 25.2367 32.717C25.2367 36.0058 24.1792 39.099 22.0638 41.9971C19.9811 44.8625 17.3614 47.2885 14.2048 49.2747H25.3832V58.0175H0.146441V49.8608ZM27.9901 40.1411C27.9901 34.5078 29.178 30.0795 31.5535 26.8559C33.9617 23.6323 37.6552 22.0205 42.6342 22.0205C47.5807 22.0205 51.2581 23.6487 53.6661 26.9048C56.0743 30.1284 57.2783 34.5406 57.2783 40.1411C57.2783 45.7744 56.0743 50.219 53.6661 53.4751C51.2581 56.6987 47.5807 58.3105 42.6342 58.3105C37.6552 58.3105 33.9617 56.6987 31.5535 53.4751C29.178 50.219 27.9901 45.7744 27.9901 40.1411ZM46.5881 40.1411C46.5881 37.5361 46.3279 35.5824 45.8071 34.28C45.2865 32.9449 44.2289 32.2774 42.6342 32.2774C41.0072 32.2774 39.9333 32.9449 39.4125 34.28C38.8919 35.5824 38.6315 37.5361 38.6315 40.1411C38.6315 42.7786 38.8919 44.7648 39.4125 46.0999C39.9333 47.4023 41.0072 48.0536 42.6342 48.0536C44.2289 48.0536 45.2865 47.4023 45.8071 46.0999C46.3279 44.7648 46.5881 42.7786 46.5881 40.1411ZM60.1149 49.8608C64.4757 46.6047 67.9251 43.6578 70.4634 41.0203C73.0017 38.3503 74.2709 35.8593 74.2709 33.5474C74.2709 32.7659 74.092 32.1634 73.7339 31.7402C73.4086 31.317 72.9693 31.1052 72.416 31.1052C71.765 31.1052 71.2444 31.4471 70.8539 32.1309C70.4959 32.7822 70.3658 33.7916 70.4634 35.1592H59.9685C60.0661 32.1309 60.717 29.6399 61.921 27.6862C63.1577 25.7325 64.7522 24.2997 66.7048 23.3881C68.6573 22.4764 70.8051 22.0205 73.1482 22.0205C77.3137 22.0205 80.3563 23.0298 82.2764 25.0487C84.2289 27.0349 85.2052 29.5911 85.2052 32.717C85.2052 36.0058 84.1476 39.099 82.0323 41.9971C79.9497 44.8625 77.3298 47.2885 74.1733 49.2747H85.3516V58.0175H60.1149V49.8608ZM87.7633 49.8608C92.1241 46.6047 95.5735 43.6578 98.1118 41.0203C100.65 38.3503 101.919 35.8593 101.919 33.5474C101.919 32.7659 101.74 32.1634 101.382 31.7402C101.057 31.317 100.618 31.1052 100.064 31.1052C99.4137 31.1052 98.8928 31.4471 98.5023 32.1309C98.1445 32.7822 98.0142 33.7916 98.1118 35.1592H87.6168C87.7145 32.1309 88.3654 29.6399 89.5694 27.6862C90.8061 25.7325 92.4006 24.2997 94.3531 23.3881C96.3057 22.4764 98.4535 22.0205 100.797 22.0205C104.962 22.0205 108.005 23.0298 109.925 25.0487C111.877 27.0349 112.854 29.5911 112.854 32.717C112.854 36.0058 111.796 39.099 109.681 41.9971C107.598 44.8625 104.978 47.2885 101.822 49.2747H113V58.0175H87.7633V49.8608Z" fill="white"/>
<path d="M14.5065 0V4.18028H10.0412V16.8161H4.76838V4.18028H0.350586V0H14.5065ZM21.2095 5.89039C21.7479 5.11451 22.405 4.49697 23.1809 4.03777C23.9568 3.56274 24.7643 3.32522 25.6036 3.32522V8.95435H24.1072C23.1096 8.95435 22.3733 9.12853 21.8983 9.47688C21.4391 9.82524 21.2095 10.4428 21.2095 11.3295V16.8161H15.9366V3.42023H21.2095V5.89039ZM39.9922 9.99942C39.9922 10.3636 39.9685 10.712 39.921 11.0445H31.4417C31.5208 12.2004 32.0038 12.7784 32.8905 12.7784C33.4605 12.7784 33.8722 12.5171 34.1256 11.9946H39.7072C39.5172 12.9446 39.1134 13.7997 38.4959 14.5597C37.8942 15.3039 37.1262 15.8977 36.192 16.3411C35.2736 16.7686 34.2602 16.9824 33.1518 16.9824C31.8217 16.9824 30.6341 16.7053 29.589 16.1511C28.5598 15.5969 27.7522 14.8052 27.1664 13.7759C26.5963 12.7309 26.3113 11.5116 26.3113 10.1182C26.3113 8.72475 26.5963 7.51342 27.1664 6.48418C27.7522 5.43911 28.5598 4.63948 29.589 4.08527C30.6341 3.53107 31.8217 3.25397 33.1518 3.25397C34.4819 3.25397 35.6615 3.53107 36.6908 4.08527C37.7358 4.62364 38.5434 5.39953 39.1134 6.41293C39.6993 7.42633 39.9922 8.62183 39.9922 9.99942ZM34.6481 8.74059C34.6481 8.29722 34.5056 7.9647 34.2206 7.74302C33.9356 7.5055 33.5793 7.38674 33.1518 7.38674C32.2175 7.38674 31.6713 7.83803 31.5129 8.74059H34.6481ZM40.9473 10.1182C40.9473 8.70892 41.1849 7.48967 41.6599 6.46043C42.1507 5.41536 42.8158 4.62364 43.655 4.08527C44.4942 3.53107 45.4364 3.25397 46.4815 3.25397C47.3523 3.25397 48.1045 3.43606 48.7379 3.80025C49.3712 4.14861 49.8542 4.63156 50.1867 5.2491V3.42023H55.4358V16.8161H50.1867V14.9873C49.8542 15.6048 49.3712 16.0957 48.7379 16.4599C48.1045 16.8082 47.3523 16.9824 46.4815 16.9824C45.4364 16.9824 44.4942 16.7132 43.655 16.1748C42.8158 15.6206 42.1507 14.8289 41.6599 13.7997C41.1849 12.7546 40.9473 11.5274 40.9473 10.1182ZM50.1867 10.1182C50.1867 9.40563 50.0046 8.85143 49.6404 8.45557C49.2762 8.05971 48.8091 7.86178 48.2391 7.86178C47.669 7.86178 47.2019 8.05971 46.8377 8.45557C46.4735 8.85143 46.2914 9.40563 46.2914 10.1182C46.2914 10.8307 46.4735 11.3849 46.8377 11.7808C47.2019 12.1767 47.669 12.3746 48.2391 12.3746C48.8091 12.3746 49.2762 12.1767 49.6404 11.7808C50.0046 11.3849 50.1867 10.8307 50.1867 10.1182ZM63.7652 16.9824C62.4984 16.9824 61.3742 16.7765 60.3925 16.3648C59.4266 15.9532 58.6586 15.3831 58.0885 14.6547C57.5185 13.9263 57.1939 13.103 57.1147 12.1846H62.1738C62.2372 12.5804 62.4034 12.8734 62.6726 13.0634C62.9576 13.2534 63.3139 13.3484 63.7414 13.3484C64.0106 13.3484 64.2244 13.293 64.3827 13.1821C64.5411 13.0555 64.6202 12.905 64.6202 12.7309C64.6202 12.43 64.454 12.2162 64.1215 12.0896C63.7889 11.9629 63.2268 11.8204 62.4351 11.662C61.4692 11.472 60.6696 11.2662 60.0362 11.0445C59.4186 10.8228 58.8723 10.4428 58.3973 9.90441C57.9381 9.36604 57.7085 8.62183 57.7085 7.67176C57.7085 6.84838 57.9223 6.10416 58.3498 5.43911C58.7932 4.75823 59.4424 4.22778 60.2974 3.84776C61.1525 3.4519 62.1897 3.25397 63.4089 3.25397C65.214 3.25397 66.6233 3.69733 67.6367 4.58406C68.6659 5.47078 69.2835 6.62669 69.4893 8.05179H64.8102C64.7311 7.6876 64.5648 7.4105 64.3115 7.22048C64.0581 7.01464 63.7177 6.91171 63.2901 6.91171C63.021 6.91171 62.8151 6.96713 62.6726 7.07797C62.5301 7.17298 62.4588 7.32341 62.4588 7.52925C62.4588 7.79844 62.6251 8.00429 62.9576 8.1468C63.2901 8.27347 63.8206 8.40806 64.549 8.55057C65.5149 8.74059 66.3304 8.95435 66.9954 9.19187C67.6604 9.42938 68.2384 9.84108 68.7293 10.4269C69.2201 10.997 69.4656 11.7887 69.4656 12.8021C69.4656 13.5938 69.236 14.3064 68.7768 14.9398C68.3176 15.5731 67.6525 16.0719 66.7816 16.4361C65.9266 16.8003 64.9211 16.9824 63.7652 16.9824ZM85.7378 3.42023V16.8161H80.465V14.7735C80.0533 15.4069 79.4991 15.9215 78.8023 16.3173C78.1215 16.7132 77.306 16.9111 76.3559 16.9111C74.82 16.9111 73.6166 16.3965 72.7457 15.3673C71.8906 14.338 71.4631 12.9446 71.4631 11.187V3.42023H76.7122V10.522C76.7122 11.1553 76.8785 11.662 77.211 12.0421C77.5593 12.4062 78.0185 12.5883 78.5886 12.5883C79.1744 12.5883 79.6336 12.4062 79.9662 12.0421C80.2987 11.662 80.465 11.1553 80.465 10.522V3.42023H85.7378ZM93.3921 5.89039C93.9304 5.11451 94.5875 4.49697 95.3634 4.03777C96.1393 3.56274 96.9469 3.32522 97.7861 3.32522V8.95435H96.2897C95.2922 8.95435 94.5559 9.12853 94.0808 9.47688C93.6217 9.82524 93.3921 10.4428 93.3921 11.3295V16.8161H88.1192V3.42023H93.3921V5.89039ZM105.572 16.9824C104.226 16.9824 103.015 16.7053 101.938 16.1511C100.861 15.5969 100.014 14.8052 99.3964 13.7759C98.7947 12.7309 98.4939 11.5116 98.4939 10.1182C98.4939 8.72475 98.7947 7.51342 99.3964 6.48418C100.014 5.43911 100.861 4.63948 101.938 4.08527C103.015 3.53107 104.226 3.25397 105.572 3.25397C106.918 3.25397 108.129 3.53107 109.206 4.08527C110.283 4.63948 111.122 5.43911 111.723 6.48418C112.341 7.51342 112.65 8.72475 112.65 10.1182C112.65 11.5116 112.341 12.7309 111.723 13.7759C111.122 14.8052 110.283 15.5969 109.206 16.1511C108.129 16.7053 106.918 16.9824 105.572 16.9824ZM105.572 12.4221C106.063 12.4221 106.474 12.2321 106.807 11.852C107.139 11.4562 107.306 10.8782 107.306 10.1182C107.306 9.35813 107.139 8.78809 106.807 8.40806C106.474 8.0122 106.063 7.81427 105.572 7.81427C105.081 7.81427 104.669 8.0122 104.337 8.40806C104.004 8.78809 103.838 9.35813 103.838 10.1182C103.838 10.8782 103.996 11.4562 104.313 11.852C104.646 12.2321 105.065 12.4221 105.572 12.4221Z" fill="white"/>
</svg>
