<svg width="112" height="109" viewBox="0 0 112 109" fill="none" xmlns="http://www.w3.org/2000/svg">
<path d="M44.9729 74.6065C47.5131 136.806 63.2723 100.27 70.7085 74.5267C74.3763 68.3243 97.3396 70.6474 104.551 69.4091C115.481 67.5322 111.76 61.7634 108.659 58.8146L89.378 48.5832C75.363 42.4004 77.8938 29.3103 80.911 23.5381C85.4196 14.1683 84.2699 6.64163 83.1315 4.04951C75.3248 -6.84357 66.247 9.02996 62.6839 18.3284C61.5239 25.8216 55.244 35.8306 39.404 15.9209C23.5639 -3.98882 17.0324 2.15818 15.7466 7.72039C15.6415 11.3148 18.066 21.4441 28.6051 33.206C41.779 47.9084 28.0531 53.7493 16.2002 59.3225C6.71795 63.781 2.01756 69.314 0.852644 71.5232C-0.69021 76.8598 1.20446 85.4044 21.126 76.8903C41.0475 68.3761 45.3246 71.8202 44.9729 74.6065Z" fill="#98FF9D"/>
</svg>
